<svg xmlns="http://www.w3.org/2000/svg" xmlns:xlink="http://www.w3.org/1999/xlink" version="1.1" width="180" height="50" viewBox="0 0 180 50" xml:space="preserve">
<desc>Created with Fabric.js 3.5.0</desc>
<defs>
</defs>
<rect x="0" y="0" width="100%" height="100%" fill="#fff"/>
<g transform="matrix(0.38 0 0 0.38 91.2 25)" id="768413">
<g style="" vector-effect="non-scaling-stroke">
		<g transform="matrix(0.1333 0 0 -0.1333 -203.3815 -13.9908)" id="path14">
<path style="stroke: none; stroke-width: 1; stroke-dasharray: none; stroke-linecap: butt; stroke-dashoffset: 0; stroke-linejoin: miter; stroke-miterlimit: 4; is-custom-font: none; font-file-url: none; fill: rgb(235,25,35); fill-rule: evenodd; opacity: 1;" transform=" translate(-274.7051, -479.8845)" d="M 297.809 329.141 L 216.09 457.578 V 414.73 l -8.078 -2.351 c -25.903 -7.109 -47.274 -12.418 -63.953 -15.899 c -16.719 -3.32 -29.137 -5.46 -37.34 -6.519 c -8.1682 -1.051 -12.5393 -1.563 -13.0471 -1.563 l -6.793 -0.277 l -14.0703 24.809 l -3.668 -21.91 l -8.0898 -1.059 c -0.1914 0 -2.8906 -0.352 -8.082 -1.051 c -5.2383 -0.859 -11.4883 -1.719 -18.8282 -2.621 c -1.9101 -0.16 -4.5312 -0.348 -7.8125 -0.508 c -3.3164 -0.191 -6.3672 -0.351 -9.1367 -0.551 c -2.7812 0 -4.2617 0 -4.4219 0 l -2.1093 20.36 c 0.1992 0.539 1.6406 0.969 4.4609 1.32 c 2.5781 0.36 5.5391 0.629 8.8594 0.789 c 3.1289 0.153 5.5508 0.352 7.3086 0.5 c 2.4218 0.352 5.5507 0.629 9.3711 0.821 c 3.8711 0.359 7.5781 0.589 11.25 0.781 c 3.6406 0.32 6.3281 0.59 8.0898 0.789 l 1.0508 66.789 l 38.0898 -66.008 c 6.2894 0.508 17.2304 2.258 32.8904 5.188 c 15.668 2.972 36.41 7.929 62.149 14.89 v 106.25 l 89.8 -150.629 l -16.992 62.93 l 37.852 25.309 l 29.262 -21.637 l -2.34 30.238 l 7.539 2.891 c 0.347 0 3.32 1.359 8.898 4.179 c 5.551 2.77 13.051 7.301 22.422 13.59 c 9.418 6.41 19.848 15.121 31.328 26.09 l 7.352 6.531 l 18 -14.89 l -45.153 101.019 l 70.973 -53.242 c 3.641 3.473 8.988 8.942 15.938 16.442 c 6.961 7.308 14.261 15.671 21.921 25.082 c 7.848 9.218 14.801 18.437 20.899 27.66 c 6.09 9.218 10 17.379 11.711 24.527 l 15.16 -20.629 c -6.289 -11.129 -13.551 -22.18 -21.91 -33.16 c -8.559 -10.98 -16.879 -21.129 -25.078 -30.551 c -8.172 -9.219 -15.16 -16.679 -20.864 -22.461 c -5.589 -5.699 -8.707 -8.867 -9.418 -9.367 l -6.789 -6.293 l -17.5 13.082 l 29.528 -66.051 l 14.84 -29.488 l -71.52 49.059 c -12.148 -10.782 -23.051 -19.219 -32.617 -25.309 c -9.57 -6.101 -17.031 -10.43 -22.461 -13.051 l 5 -62.379 l -55.621 40.969 l -11.762 -7.808 l 24.531 -109.922 l 8.36 -34.45 l -27.66 33.161" stroke-linecap="round"/>
</g>
		<g transform="matrix(0.1333 0 0 -0.1333 -200.103 -10.8999)" id="path16">
<path style="stroke: none; stroke-width: 1; stroke-dasharray: none; stroke-linecap: butt; stroke-dashoffset: 0; stroke-linejoin: miter; stroke-miterlimit: 4; is-custom-font: none; font-file-url: none; fill: rgb(0,174,238); fill-rule: evenodd; opacity: 1;" transform=" translate(-299.3019, -456.6757)" d="m 551.801 626.988 c -0.321 -0.187 -2.071 -2.258 -5.199 -6.289 c -3.321 -3.82 -6.641 -7.648 -9.922 -11.48 c -3.129 -3.828 -4.879 -5.899 -5.231 -6.25 c 12.18 -20 21.321 -40.899 27.422 -62.66 c 6.09 -21.911 9.367 -44.219 9.918 -66.829 c -17.578 -27.152 -38.051 -53.402 -61.367 -78.832 c 4.027 26.954 4.379 53.793 1.058 80.391 c -3.48 26.801 -10.511 52.582 -21.14 77.262 c -0.699 -1.012 -2.461 -2.692 -5.231 -4.922 c -2.621 -2.258 -5.16 -4.367 -7.578 -6.289 c -2.422 -1.91 -3.75 -3.121 -3.91 -3.668 l -1.832 -0.781 c 11.332 -25.903 18.633 -52.621 21.91 -80.121 c 3.172 -27.301 2.27 -54.641 -2.609 -81.989 c -22.27 -21.91 -46.25 -41.133 -72.039 -57.691 c -25.742 -16.68 -52.731 -29.301 -80.891 -37.86 c -28.359 -8.671 -57.539 -11.91 -87.461 -9.64 c -2.109 0 -3.828 -0.59 -5.238 -1.84 c -1.563 -1.211 -3.121 -2.422 -4.691 -3.629 c -1.559 -1.41 -3.321 -1.992 -5.231 -1.84 c 30.82 -2.422 60.742 -0.582 89.801 5.469 c 29.262 6.289 57.07 16.02 83.519 29.262 c 26.641 13.199 51.641 29.218 74.961 48.039 c -7.148 -23.16 -17.34 -45.352 -30.59 -66.563 c -13.39 -21.437 -30 -41.25 -49.839 -59.527 c 2.621 2.269 5.738 4.059 9.41 5.469 c 3.679 1.41 6.879 3.199 9.648 5.468 c 20.551 18.122 37.582 38.473 51.172 61.09 c 13.559 22.461 23.68 46.293 30.277 71.563 c 25.043 22.929 47.34 48.289 66.832 75.937 c -2.109 -24.019 -6.871 -47.769 -14.371 -71.25 c -7.308 -23.508 -17.031 -46.047 -29.218 -67.609 c -15.86 -23.328 -33.243 -43.008 -52.231 -58.988 c -19.14 -16.211 -38.281 -29.34 -57.422 -39.45 c -19.289 -10.082 -36.988 -17.929 -53.008 -23.48 c -16.171 -5.391 -29.14 -9.141 -38.859 -11.211 c -9.769 -2.109 -14.812 -3.09 -15.16 -2.891 c 30.82 3.672 58.129 9.571 81.988 17.731 c 24.031 8.051 44.531 17.07 61.602 27.191 c 17.039 10.078 30.859 19.809 41.488 29.219 c 10.621 9.219 18.082 16.801 22.461 22.73 c 20.551 22.782 37.5 48.641 50.898 77.5 c 13.403 29.071 22.262 59.891 26.641 92.43 c 4.492 32.692 3.551 65.781 -2.891 99.219 c -6.25 33.391 -18.867 65.93 -37.847 97.609 M 154.488 564.059 c -0.187 -20.188 0.782 -40.188 2.891 -60.039 c 2.07 -19.641 4.531 -38.282 7.312 -55.86 c 0 -0.699 -1.492 -1.48 -4.461 -2.34 c -2.929 -0.859 -6.441 -1.64 -10.429 -2.379 c -4.02 -0.82 -7.5 -1.722 -10.422 -2.582 c -2.969 -0.699 -4.457 -1.41 -4.457 -2.109 c -2.621 17.578 -3.832 36.91 -3.672 57.969 c 0.199 20.902 1.949 42.261 5.23 64.222 c -27.3 -4.531 -54.7183 -5.82 -82.2183 -3.953 C 48.8711 536.84 45.1992 516.289 43.2813 495.43 C 41.5586 474.531 42.1484 454.34 45.1211 434.84 L 44.8398 427.809 L 6.25 425.699 c -4.17969 29.422 -3.94922 58.68 0.73828 87.742 c 4.69142 29.219 14.03122 57.071 27.97262 83.508 c 13.9102 26.449 32.7696 50.321 56.5977 71.531 c 23.3634 20.7 48.3204 38.469 74.9614 53.239 c -23 -13.399 -42.571 -30.27 -58.75 -50.629 c -16.2114 -20.192 -29.7583 -44.719 -40.7387 -73.629 c -2.2618 -6.25 -4.4102 -12.582 -6.5196 -19.02 c 25.9375 -2.82 52.2973 -2.621 79.0973 0.508 c 3.481 17.571 8.012 34.289 13.59 50.11 c 5.75 16.019 12.621 30.472 20.629 43.32 c -5.59 1.062 -9.848 3.242 -12.808 6.531 c -2.782 3.512 -3.211 8.551 -1.29 15.149 c 2.071 6.453 5.11 12.621 9.141 18.519 c 3.981 5.781 8.43 11.172 13.32 16.211 c 2.579 2.262 5.821 4.063 9.649 5.473 c 3.672 1.207 6.75 3.039 9.371 5.468 c -4.18 -4.339 -8.16 -9.14 -11.992 -14.339 c -3.828 -5.231 -6.879 -10.621 -9.141 -16.172 c -2.617 -7.34 -2.617 -13.047 0 -17.231 c 2.621 -4.019 6.723 -6.718 12.262 -8.117 c 5.59 -1.371 11.57 -1.922 18.012 -1.57 c 12.027 0.711 23.828 2.539 35.507 5.508 c 5.231 1.211 10.352 2.703 15.391 4.421 c 1.25 0.5 2.539 1.129 3.91 1.829 c 1.399 0.711 2.692 1.293 3.942 1.839 c 3.128 2.774 5.668 5.903 7.539 9.411 c 2.109 3.64 2.89 7.543 2.379 11.722 c -1.051 7.309 -4.25 12.969 -9.641 16.989 c -5.238 4.179 -11.41 6.96 -18.559 8.32 c -7.148 1.211 -13.832 1.41 -20.082 0.551 c 2.071 0.347 3.364 0.937 3.91 1.839 c 0.352 1.008 0.782 1.989 1.293 2.848 c 0.508 0.863 1.829 1.481 3.938 1.832 c 4.691 0.711 10.59 0.789 17.742 0.281 c 7.301 -0.55 14.328 -1.839 21.129 -3.953 c 6.949 -2.258 12.27 -5.386 15.941 -9.367 c 3.829 -4.18 4.688 -9.57 2.61 -16.211 c -2.262 -5.75 -5.66 -10.512 -10.192 -14.34 c -4.687 -3.672 -9.73 -6.949 -15.16 -9.922 c -3.121 -1.757 -6.25 -3.476 -9.371 -5.238 c -0.199 0 -0.199 0 0 0 c -0.199 0 -0.199 0 0 0 c -12.539 -6.789 -25.937 -11.75 -40.199 -14.879 c -4.02 -0.859 -9.918 -1.871 -17.77 -3.121 c -7.66 -1.211 -15.468 -1.64 -23.48 -1.289 c -8.16 -12.891 -14.367 -26.992 -18.551 -42.312 c -3.988 -15.309 -6.527 -31.329 -7.539 -48.039 c 25.231 3.859 49.762 9.761 73.59 17.769 c 24.031 7.813 46.371 17.301 67.109 28.481 c 20.672 10.929 38.953 23.121 54.813 36.519 c 2.969 2.262 6.168 4.102 9.648 5.473 c 3.473 1.398 6.641 3.238 9.41 5.468 c -30.121 -26.8 -63.437 -49.73 -100 -68.91 c -36.718 -19.3 -75.078 -33.242 -115.121 -41.761" stroke-linecap="round"/>
</g>
		<g transform="matrix(0.1333 0 0 -0.1333 -93.6244 -10.1002)" id="path18">
<path style="stroke: none; stroke-width: 1; stroke-dasharray: none; stroke-linecap: butt; stroke-dashoffset: 0; stroke-linejoin: miter; stroke-miterlimit: 4; is-custom-font: none; font-file-url: none; fill: rgb(237,28,36); fill-rule: nonzero; opacity: 1;" transform=" translate(-1097.91, -450.705)" d="m 792.93 484.691 h 236.25 V 636.25 h 67.34 V 265.16 h -67.34 V 416.879 H 792.93 V 265.16 h -67.34 v 371.09 h 67.34 z m 677.3 -125 c 0 -11.57 -1.48 -21.992 -4.37 -31.25 c -2.93 -9.3 -6.84 -17.421 -11.72 -24.382 c -4.8 -6.989 -10.43 -12.93 -16.87 -17.809 c -6.37 -4.922 -13.05 -8.91 -20 -12.031 c -7 -3.129 -14.07 -5.43 -21.25 -6.879 c -7.11 -1.481 -13.87 -2.18 -20.32 -2.18 h -121.25 c -9.37 0 -19.61 1.602 -30.62 4.84 c -11.06 3.32 -21.25 8.75 -30.63 16.25 c -9.37 7.5 -17.26 17.23 -23.59 29.219 c -6.25 11.953 -9.38 26.722 -9.38 44.222 v 91.09 c 0 17.188 3.13 31.758 9.38 43.75 c 6.33 11.949 14.22 21.719 23.59 29.219 c 9.38 7.5 19.57 12.852 30.63 16.09 c 11.01 3.32 21.25 5 30.62 5 h 121.25 c 17.27 0 31.96 -3.121 44.07 -9.371 c 12.07 -6.168 21.79 -13.91 29.21 -23.278 c 7.39 -9.382 12.74 -19.613 16.1 -30.632 c 3.44 -11.047 5.15 -21.329 5.15 -30.778 z m -67.34 90.469 c 0 9.371 -2.34 16.289 -7.03 20.781 c -4.61 4.45 -11.33 6.719 -20.16 6.719 h -120.78 c -8.98 0 -15.78 -2.308 -20.47 -6.879 c -4.68 -4.609 -7.03 -11.25 -7.03 -20 v -91.09 c 0 -8.871 2.35 -15.632 7.03 -20.312 c 4.69 -4.609 11.49 -6.879 20.47 -6.879 h 120.78 c 9.14 0 15.98 2.27 20.47 6.879 c 4.45 4.68 6.72 11.441 6.72 20.312 z" stroke-linecap="round"/>
</g>
		<g transform="matrix(0.1333 0 0 -0.1333 -18.994 -4.0047)" id="path20">
<path style="stroke: none; stroke-width: 1; stroke-dasharray: none; stroke-linecap: butt; stroke-dashoffset: 0; stroke-linejoin: miter; stroke-miterlimit: 4; is-custom-font: none; font-file-url: none; fill: rgb(237,28,36); fill-rule: nonzero; opacity: 1;" transform=" translate(-1657.58, -405)" d="m 1797.58 359.691 c 0 -11.57 -1.49 -21.992 -4.38 -31.25 c -2.93 -9.3 -6.83 -17.421 -11.72 -24.382 c -4.8 -6.989 -10.43 -12.93 -16.87 -17.809 c -6.37 -4.922 -13.05 -8.91 -20 -12.031 c -6.99 -3.129 -14.06 -5.43 -21.25 -6.879 c -7.11 -1.481 -13.87 -2.18 -20.31 -2.18 h -182.19 v 67.34 h 181.72 c 9.14 0 16.01 2.27 20.62 6.879 c 4.69 4.68 7.03 11.441 7.03 20.312 c -0.85 17.887 -9.92 26.868 -27.18 26.868 h -104.22 c -14.92 0 -27.5 2.543 -37.81 7.66 c -10.32 5.191 -18.75 11.64 -25.32 19.371 c -6.48 7.82 -11.09 16.18 -13.9 25.16 c -2.82 8.949 -4.22 17.34 -4.22 25.16 c 0 15 2.65 27.57 7.97 37.809 c 5.31 10.312 12.03 18.633 20.15 25 c 8.13 6.441 16.92 11.09 26.41 13.902 c 9.45 2.82 18.36 4.219 26.72 4.219 h 165.31 V 477.66 H 1599.3 c -3.44 0 -6.18 -0.43 -8.13 -1.25 c -1.99 -0.75 -3.44 -1.801 -4.37 -3.129 c -0.94 -1.25 -1.53 -2.621 -1.72 -4.062 c -0.24 -1.489 -0.31 -2.891 -0.31 -4.219 c 0.19 -2.809 0.7 -5 1.56 -6.559 c 0.94 -1.562 2.03 -2.742 3.28 -3.441 c 1.25 -0.621 2.69 -1.02 4.37 -1.09 c 1.64 -0.121 3.29 -0.16 4.85 -0.16 h 104.22 c 17.26 0 31.95 -3.129 44.06 -9.371 c 12.07 -6.18 21.8 -13.91 29.22 -23.289 c 7.38 -9.371 12.73 -19.61 16.09 -30.621 c 3.44 -11.059 5.16 -21.328 5.16 -30.778 z" stroke-linecap="round"/>
</g>
		<g transform="matrix(0.1333 0 0 -0.1333 21.1521 -10.1002)" id="path22">
<path style="stroke: none; stroke-width: 1; stroke-dasharray: none; stroke-linecap: butt; stroke-dashoffset: 0; stroke-linejoin: miter; stroke-miterlimit: 4; is-custom-font: none; font-file-url: none; fill: rgb(237,28,36); fill-rule: nonzero; opacity: 1;" transform=" translate(-1958.675, -450.705)" d="m 2095.16 477.66 h -117.5 v -212.5 h -67.97 v 212.5 h -87.5 v 67.18 h 87.5 v 91.41 h 67.97 v -91.41 h 117.5 z" stroke-linecap="round"/>
</g>
		<g transform="matrix(0.1333 0 0 -0.1333 64.8696 -4.0047)" id="path24">
<path style="stroke: none; stroke-width: 1; stroke-dasharray: none; stroke-linecap: butt; stroke-dashoffset: 0; stroke-linejoin: miter; stroke-miterlimit: 4; is-custom-font: none; font-file-url: none; fill: rgb(237,28,36); fill-rule: nonzero; opacity: 1;" transform=" translate(-2286.56, -405)" d="m 2439.84 452.191 c 0 -9.3 -1.68 -19.339 -5 -30.16 c -3.24 -10.742 -8.51 -20.742 -15.78 -30 c -7.3 -9.179 -16.87 -16.871 -28.75 -23.121 c -11.79 -6.18 -26.17 -9.219 -43.12 -9.219 h -121.25 v 63.899 h 121.25 c 9.14 0 16.25 2.738 21.25 8.289 c 5 5.621 7.5 12.57 7.5 20.93 c 0 8.75 -2.82 15.632 -8.44 20.632 c -5.55 5 -12.3 7.5 -20.31 7.5 h -121.25 c -9.18 0 -16.25 -2.82 -21.25 -8.441 c -5 -5.551 -7.5 -12.461 -7.5 -20.781 v -93.91 c 0 -8.981 2.73 -15.93 8.28 -20.93 c 5.62 -5 12.58 -7.5 20.94 -7.5 h 120.78 V 265.16 h -121.25 c -9.38 0 -19.49 1.602 -30.32 4.84 c -10.74 3.32 -20.74 8.629 -30 15.941 c -9.17 7.379 -16.87 16.95 -23.12 28.75 c -6.17 11.868 -9.22 26.25 -9.22 43.118 v 94.382 c 0 9.368 1.6 19.411 4.84 30.149 c 3.33 10.82 8.64 20.82 15.94 30 c 7.27 9.262 16.8 16.961 28.6 23.129 c 11.87 6.25 26.29 9.371 43.28 9.371 h 121.25 c 9.37 0 19.41 -1.68 30.15 -5 c 10.82 -3.238 20.82 -8.512 30 -15.781 c 9.26 -7.297 16.96 -16.868 23.13 -28.75 c 6.25 -11.789 9.37 -26.168 9.37 -43.118 z" stroke-linecap="round"/>
</g>
		<g transform="matrix(0.1333 0 0 -0.1333 107.6366 -4.0047)" id="path26">
<path style="stroke: none; stroke-width: 1; stroke-dasharray: none; stroke-linecap: butt; stroke-dashoffset: 0; stroke-linejoin: miter; stroke-miterlimit: 4; is-custom-font: none; font-file-url: none; fill: rgb(237,28,36); fill-rule: nonzero; opacity: 1;" transform=" translate(-2607.305, -405)" d="M 2730.51 477.66 H 2579.1 c -9.18 0 -16.09 -2.308 -20.78 -6.879 c -4.61 -4.609 -6.87 -11.25 -6.87 -20 V 265.16 h -67.35 v 185.621 c 0 11.559 1.45 21.879 4.38 30.938 c 2.89 9.14 6.79 17.23 11.72 24.222 c 5 6.95 10.66 12.887 17.03 17.809 c 6.32 5 13 8.98 20 12.031 c 7.07 3.129 14.14 5.391 21.25 6.879 c 7.18 1.442 13.9 2.18 20.15 2.18 h 151.88 z" stroke-linecap="round"/>
</g>
		<g transform="matrix(0.1333 0 0 -0.1333 155.5098 -10.1002)" id="path28">
<path style="stroke: none; stroke-width: 1; stroke-dasharray: none; stroke-linecap: butt; stroke-dashoffset: 0; stroke-linejoin: miter; stroke-miterlimit: 4; is-custom-font: none; font-file-url: none; fill: rgb(237,28,36); fill-rule: nonzero; opacity: 1;" transform=" translate(-2966.37, -450.705)" d="m 3151.84 480.941 c 0 -15.32 -1.96 -29.031 -5.79 -41.101 c -3.75 -12.11 -8.86 -22.77 -15.31 -32.031 c -6.48 -9.18 -13.98 -17.028 -22.5 -23.59 c -8.44 -6.559 -17.3 -11.949 -26.56 -16.098 c -9.18 -4.172 -18.44 -7.18 -27.81 -9.062 c -9.38 -1.868 -18.25 -2.809 -26.57 -2.809 h -152.18 v 67.34 h 152.18 c 8.64 0.629 16.45 2.351 23.44 5.16 c 6.96 2.891 12.97 6.762 17.97 11.559 c 5 4.89 8.83 10.711 11.56 17.5 c 2.82 6.882 4.22 14.57 4.22 23.132 v 30.618 c -0.86 8.441 -2.65 16.171 -5.47 23.281 c -2.73 7.07 -6.48 13.129 -11.25 18.129 c -4.68 5 -10.43 8.91 -17.18 11.722 c -6.68 2.809 -14.46 4.219 -23.29 4.219 h -151.56 c -8.98 0 -15.78 -2.351 -20.47 -7.031 c -4.68 -4.609 -7.03 -11.258 -7.03 -20 V 265.16 h -67.34 v 276.719 c 0 17.18 3.12 31.793 9.37 43.902 c 6.33 12.071 14.22 21.797 23.6 29.219 c 9.45 7.379 19.72 12.73 30.78 16.09 c 11.01 3.441 21.17 5.16 30.47 5.16 h 152.18 c 15.2 0 28.83 -1.949 40.94 -5.781 c 12.07 -3.867 22.7 -9.059 31.88 -15.629 c 9.26 -6.481 17.11 -13.899 23.59 -22.34 c 6.45 -8.441 11.76 -17.301 15.94 -26.559 c 4.26 -9.179 7.34 -18.519 9.22 -27.972 c 1.95 -9.379 2.97 -18.199 2.97 -26.41 z" stroke-linecap="round"/>
</g>
		<g transform="matrix(0.1333 0 0 -0.1333 213.8842 -10.1002)" id="path30">
<path style="stroke: none; stroke-width: 1; stroke-dasharray: none; stroke-linecap: butt; stroke-dashoffset: 0; stroke-linejoin: miter; stroke-miterlimit: 4; is-custom-font: none; font-file-url: none; fill: rgb(237,28,36); fill-rule: nonzero; opacity: 1;" transform=" translate(-3404.1801, -450.705)" d="m 3598.4 265.16 h -95.47 l -151.41 151.719 h -47.34 v 67.812 h 47.34 l 151.41 151.559 h 95.47 L 3407.77 450.781 Z m -321.1 0 h -67.3398 V 636.25 H 3277.3 Z" stroke-linecap="round"/>
</g>
		<g transform="matrix(0.1333 0 0 -0.1333 -83.259 38.9984)" id="path32">
<path style="stroke: none; stroke-width: 1; stroke-dasharray: none; stroke-linecap: butt; stroke-dashoffset: 0; stroke-linejoin: miter; stroke-miterlimit: 4; is-custom-font: none; font-file-url: none; fill: rgb(67,150,202); fill-rule: nonzero; opacity: 1;" transform=" translate(-1175.585, -82.4998)" d="m 1195.55 132.109 l -16.41 -91.8785 c -0.31 -1.7891 -1.17 -3.3516 -2.5 -4.6797 c -1.25 -1.3711 -2.77 -2.1914 -4.53 -2.5 c -1.88 -0.3203 -3.67 -0.082 -5.31 0.6211 c -1.68 0.707 -2.97 1.8789 -3.91 3.4375 l -32.66 53.4414 l -32.5 -53.4414 c -0.85 -1.3711 -1.95 -2.418 -3.28 -3.1289 c -1.36 -0.6992 -2.77 -1.0899 -4.22 -1.0899 c -2.18 0 -4.14 0.6992 -5.78 2.0313 c -1.68 1.3281 -2.65 3.1289 -2.97 5.3086 l -16.56 91.8785 h 18.13 l 11.72 -64.6871 l 27.96 44.6871 c 0.82 1.332 1.88 2.379 3.13 3.121 c 1.33 0.711 2.81 1.098 4.37 1.098 c 1.57 0 3.01 -0.387 4.38 -1.098 c 1.33 -0.742 2.42 -1.789 3.28 -3.121 l 27.81 -44.6871 l 11.88 64.6871 z m 90.7 -48.5895 c 0 -2.4297 -0.43 -5.0781 -1.25 -7.9687 c -0.86 -2.8203 -2.27 -5.4727 -4.22 -7.9727 c -1.99 -2.4179 -4.53 -4.457 -7.66 -6.0976 c -3.12 -1.5586 -6.87 -2.3399 -11.24 -2.3399 h -32.19 v 16.8789 h 32.19 c 2.38 0 4.21 0.6993 5.46 2.1797 c 1.33 1.4492 2.04 3.2813 2.04 5.4727 c 0 2.3789 -0.75 4.2187 -2.19 5.4687 c -1.49 1.3282 -3.24 2.0313 -5.31 2.0313 h -32.19 c -2.42 0 -4.3 -0.7813 -5.63 -2.3438 c -1.25 -1.4883 -1.87 -3.2773 -1.87 -5.4687 V 58.6719 c 0 -2.4219 0.7 -4.293 2.19 -5.6211 c 1.44 -1.25 3.28 -1.8789 5.46 -1.8789 h 32.04 V 34.1406 h -32.19 c -2.42 0 -5.08 0.3907 -7.97 1.25 c -2.81 0.9375 -5.47 2.3399 -7.97 4.2188 c -2.42 1.9492 -4.45 4.5312 -6.09 7.6601 c -1.57 3.1211 -2.35 6.9102 -2.35 11.4024 v 24.8476 c 0 2.5 0.39 5.1524 1.25 7.961 c 0.82 2.8984 2.23 5.5508 4.22 7.9687 c 1.95 2.3908 4.53 4.4218 7.66 6.1018 c 3.12 1.64 6.87 2.5 11.25 2.5 h 32.19 c 2.38 0 5 -0.473 7.81 -1.41 c 2.89 -0.86 5.54 -2.262 7.97 -4.219 c 2.5 -1.871 4.53 -4.3712 6.09 -7.5001 c 1.64 -3.1211 2.5 -6.9531 2.5 -11.4024 z" stroke-linecap="round"/>
</g>
		<g transform="matrix(0.1333 0 0 -0.1333 -61.4754 38.4355)" id="path34">
<path style="stroke: none; stroke-width: 1; stroke-dasharray: none; stroke-linecap: butt; stroke-dashoffset: 0; stroke-linejoin: miter; stroke-miterlimit: 4; is-custom-font: none; font-file-url: none; fill: rgb(67,150,202); fill-rule: nonzero; opacity: 1;" transform=" translate(-1338.945, -86.7208)" d="m 1379.88 59.1406 c 0 -1.6797 -0.23 -3.4414 -0.62 -5.3125 c -0.43 -1.8789 -1.06 -3.75 -1.88 -5.6289 c -0.74 -1.8711 -1.79 -3.6679 -3.12 -5.3086 c -1.25 -1.6797 -2.81 -3.1992 -4.69 -4.5312 c -1.87 -1.25 -4.02 -2.3086 -6.41 -3.1289 c -2.42 -0.7422 -5.11 -1.0899 -8.12 -1.0899 h -32.19 c -1.68 0 -3.44 0.1602 -5.31 0.4688 c -1.88 0.3906 -3.75 1.0117 -5.63 1.8711 c -1.79 0.8203 -3.51 1.8789 -5.15 3.1289 c -1.68 1.332 -3.21 2.9687 -4.53 4.8398 c -1.25 1.8789 -2.31 3.9922 -3.13 6.4102 c -0.74 2.3789 -1.09 5.1601 -1.09 8.2812 v 80.1604 h 17.81 V 59.1406 c 0 -2.1914 0.66 -3.9804 2.03 -5.3125 c 1.33 -1.25 3.01 -1.8789 5 -1.8789 h 32.19 c 2.19 0 3.91 0.6289 5.16 1.8789 c 1.25 1.3321 1.87 3.1211 1.87 5.3125 v 24.0586 c 0 2.1914 -0.7 3.9102 -2.03 5.1602 c -1.25 1.25 -2.93 1.8711 -5 1.8711 h -32.19 v 17.8205 h 32.19 c 1.64 0 3.44 -0.242 5.31 -0.629 c 1.88 -0.313 3.67 -0.902 5.47 -1.723 c 1.88 -0.859 3.63 -1.949 5.31 -3.277 c 1.76 -1.25 3.28 -2.8126 4.53 -4.6915 c 1.25 -1.8711 2.23 -4.0196 2.97 -6.4024 c 0.82 -2.4179 1.25 -5.1172 1.25 -8.1289 z" stroke-linecap="round"/>
</g>
		<g transform="matrix(0.1333 0 0 -0.1333 -41.0743 38.915)" id="path36">
<path style="stroke: none; stroke-width: 1; stroke-dasharray: none; stroke-linecap: butt; stroke-dashoffset: 0; stroke-linejoin: miter; stroke-miterlimit: 4; is-custom-font: none; font-file-url: none; fill: rgb(67,150,202); fill-rule: nonzero; opacity: 1;" transform=" translate(-1491.955, -83.1248)" d="m 1460.78 92.1094 h 62.34 v 39.9996 h 17.82 V 34.1406 h -17.82 v 40 h -62.34 v -40 h -17.81 v 97.9684 h 17.81 z" stroke-linecap="round"/>
</g>
		<g transform="matrix(0.1333 0 0 -0.1333 -26.84 40.5193)" id="path38">
<path style="stroke: none; stroke-width: 1; stroke-dasharray: none; stroke-linecap: butt; stroke-dashoffset: 0; stroke-linejoin: miter; stroke-miterlimit: 4; is-custom-font: none; font-file-url: none; fill: rgb(67,150,202); fill-rule: nonzero; opacity: 1;" transform=" translate(-1598.71, -71.0958)" d="m 1639.65 59.1406 c 0 -3.1211 -0.43 -5.9023 -1.25 -8.2812 c -0.74 -2.418 -1.72 -4.5313 -2.97 -6.4102 c -1.25 -1.8711 -2.77 -3.5078 -4.53 -4.8398 c -1.68 -1.25 -3.44 -2.3086 -5.31 -3.1289 c -1.8 -0.8594 -3.68 -1.4805 -5.63 -1.8711 c -1.87 -0.3086 -3.67 -0.4688 -5.31 -0.4688 h -32.03 c -2.5 0 -5.24 0.3907 -8.13 1.25 c -2.93 0.9375 -5.62 2.3789 -8.12 4.3789 c -2.42 1.9493 -4.46 4.5313 -6.1 7.6524 c -1.68 3.1992 -2.5 7.1094 -2.5 11.7187 v 24.0586 c 0 4.461 0.82 8.2813 2.5 11.4102 c 1.64 3.1992 3.68 5.8206 6.1 7.8126 c 2.5 1.957 5.19 3.359 8.12 4.219 c 2.89 0.937 5.63 1.41 8.13 1.41 h 32.03 c 4.57 0 8.44 -0.86 11.56 -2.5 c 3.2 -1.68 5.82 -3.75 7.81 -6.2502 c 1.96 -2.4219 3.36 -5.082 4.22 -7.9727 c 0.94 -2.9297 1.41 -5.6289 1.41 -8.1289 z m -17.81 23.9102 c 0 2.3789 -0.63 4.1406 -1.88 5.3086 c -1.17 1.25 -2.93 1.8711 -5.31 1.8711 h -31.88 c -2.42 0 -4.22 -0.6211 -5.47 -1.8711 c -1.17 -1.168 -1.71 -2.8906 -1.71 -5.1602 V 59.1406 c 0 -2.4218 0.54 -4.2187 1.71 -5.4687 c 1.25 -1.1719 3.05 -1.7227 5.47 -1.7227 h 31.88 c 2.38 0 4.14 0.5508 5.31 1.7227 c 1.25 1.25 1.88 3.0469 1.88 5.4687 z" stroke-linecap="round"/>
</g>
		<g transform="matrix(0.1333 0 0 -0.1333 -14.7826 40.5193)" id="path40">
<path style="stroke: none; stroke-width: 1; stroke-dasharray: none; stroke-linecap: butt; stroke-dashoffset: 0; stroke-linejoin: miter; stroke-miterlimit: 4; is-custom-font: none; font-file-url: none; fill: rgb(67,150,202); fill-rule: nonzero; opacity: 1;" transform=" translate(-1689.14, -71.0958)" d="m 1726.17 59.1406 c 0 -3.1211 -0.43 -5.9023 -1.25 -8.2812 c -0.74 -2.418 -1.8 -4.5313 -3.12 -6.4102 c -1.25 -1.8711 -2.74 -3.5078 -4.38 -4.8398 c -1.68 -1.25 -3.44 -2.3086 -5.31 -3.1289 c -1.88 -0.8594 -3.75 -1.4805 -5.63 -1.8711 c -1.87 -0.3086 -3.67 -0.4688 -5.31 -0.4688 h -48.12 v 17.8086 h 47.97 c 2.38 0 4.21 0.5508 5.46 1.7227 c 1.25 1.25 1.88 3.0469 1.88 5.4687 c -0.24 4.6875 -2.62 7.0313 -7.19 7.0313 h -27.5 c -3.98 0 -7.34 0.6679 -10.15 2.0273 c -2.74 1.3321 -4.93 3.0508 -6.57 5.1602 c -1.68 2.0703 -2.93 4.2617 -3.75 6.5625 c -0.74 2.3789 -1.09 4.6094 -1.09 6.7187 c 0 3.9492 0.66 7.2696 2.03 10 c 1.45 2.6992 3.2 4.8794 5.31 6.5584 c 2.19 1.762 4.53 3.012 7.03 3.75 c 2.58 0.711 5 1.102 7.19 1.102 h 43.6 V 90.2305 h -43.6 c -0.86 0 -1.52 -0.1094 -2.03 -0.3086 c -0.55 -0.2305 -0.94 -0.4727 -1.25 -0.7813 c -0.23 -0.3125 -0.39 -0.6992 -0.47 -1.0898 c 0 -0.4297 0 -0.7813 0 -1.1016 c 0 -0.7383 0.08 -1.3281 0.31 -1.7187 c 0.32 -0.4297 0.63 -0.7422 0.94 -0.9297 c 0.31 -0.2422 0.67 -0.3203 1.1 -0.3203 c 0.5 0 0.97 0 1.4 0 h 27.5 c 4.57 0 8.44 -0.8594 11.56 -2.5 c 3.21 -1.6797 5.82 -3.75 7.82 -6.25 c 1.95 -2.4219 3.36 -5.0703 4.22 -7.961 c 0.93 -2.9297 1.4 -5.6289 1.4 -8.1289 z" stroke-linecap="round"/>
</g>
		<g transform="matrix(0.1333 0 0 -0.1333 -4.1833 38.915)" id="path42">
<path style="stroke: none; stroke-width: 1; stroke-dasharray: none; stroke-linecap: butt; stroke-dashoffset: 0; stroke-linejoin: miter; stroke-miterlimit: 4; is-custom-font: none; font-file-url: none; fill: rgb(67,150,202); fill-rule: nonzero; opacity: 1;" transform=" translate(-1768.635, -83.1248)" d="m 1804.65 90.2305 h -30.94 V 34.1406 h -17.97 v 56.0899 h -23.12 v 17.8205 h 23.12 v 24.058 h 17.97 v -24.058 h 30.94 z" stroke-linecap="round"/>
</g>
		<g transform="matrix(0.1333 0 0 -0.1333 3.4271 38.4355)" id="path44">
<path style="stroke: none; stroke-width: 1; stroke-dasharray: none; stroke-linecap: butt; stroke-dashoffset: 0; stroke-linejoin: miter; stroke-miterlimit: 4; is-custom-font: none; font-file-url: none; fill: rgb(67,150,202); fill-rule: nonzero; opacity: 1;" transform=" translate(-1825.7057, -86.7206)" d="m 1834.61 123.199 h -17.8086 v 16.1016 h 17.8086 z m 0 -89.0584 h -17.8086 v 73.9102 h 17.8086 z" stroke-linecap="round"/>
</g>
		<g transform="matrix(0.1333 0 0 -0.1333 12.3319 40.5193)" id="path46">
<path style="stroke: none; stroke-width: 1; stroke-dasharray: none; stroke-linecap: butt; stroke-dashoffset: 0; stroke-linejoin: miter; stroke-miterlimit: 4; is-custom-font: none; font-file-url: none; fill: rgb(67,150,202); fill-rule: nonzero; opacity: 1;" transform=" translate(-1892.5, -71.0958)" d="m 1933.52 34.1406 h -17.82 v 41.0899 c 0 2.2695 -0.43 4.3008 -1.25 6.0976 c -0.86 1.8711 -1.95 3.4727 -3.28 4.8438 c -1.37 1.3281 -2.97 2.3476 -4.84 2.9687 c -1.8 0.6992 -3.75 1.0899 -5.94 1.0899 H 1869.3 V 34.1406 h -17.82 v 65.1602 c 0 1.1292 0.2 2.2192 0.63 3.2772 c 0.51 1.133 1.17 2.07 2.03 2.813 c 0.82 0.82 1.76 1.449 2.81 1.879 c 1.14 0.5 2.35 0.781 3.6 0.781 h 40 c 2.26 0 4.61 -0.281 7.03 -0.781 c 2.5 -0.551 4.92 -1.372 7.34 -2.5 c 2.5 -1.059 4.85 -2.469 7.03 -4.219 c 2.19 -1.6799 4.1 -3.7502 5.78 -6.2502 c 1.76 -2.4219 3.17 -5.2422 4.22 -8.4414 c 1.02 -3.1289 1.57 -6.6797 1.57 -10.6289 z" stroke-linecap="round"/>
</g>
		<g transform="matrix(0.1333 0 0 -0.1333 25.15 42.6542)" id="path48">
<path style="stroke: none; stroke-width: 1; stroke-dasharray: none; stroke-linecap: butt; stroke-dashoffset: 0; stroke-linejoin: miter; stroke-miterlimit: 4; is-custom-font: none; font-file-url: none; fill: rgb(67,150,202); fill-rule: nonzero; opacity: 1;" transform=" translate(-1988.635, -55.0802)" d="m 2029.57 26.9492 c 0 -3 -0.43 -5.6992 -1.25 -8.1211 c -0.74 -2.5 -1.72 -4.6093 -2.97 -6.4062 c -1.25 -1.8711 -2.77 -3.44143 -4.53 -4.69143 c -1.68 -1.32031 -3.44 -2.42188 -5.31 -3.28125 c -1.8 -0.82031 -3.67 -1.39844 -5.63 -1.71875 c -1.87 -0.39063 -3.67 -0.62109 -5.31 -0.62109 h -32.03 V 19.9219 h 32.03 c 2.38 0 4.14 0.6289 5.31 1.8789 c 1.25 1.168 1.88 2.8906 1.88 5.1484 v 56.25 c 0 2.2696 -0.63 3.9922 -1.88 5.1602 c -1.17 1.25 -2.93 1.8711 -5.31 1.8711 h -32.03 c -2.19 0 -3.91 -0.6992 -5.16 -2.0313 c -1.25 -1.3594 -1.87 -3.039 -1.87 -5 V 59.1406 c 0 -2.4218 0.54 -4.2187 1.72 -5.4687 c 1.25 -1.1719 3.04 -1.7227 5.47 -1.7227 h 31.87 V 34.1406 h -32.03 c -1.68 0 -3.44 0.1602 -5.31 0.4688 c -1.88 0.3906 -3.75 1.0117 -5.63 1.8711 c -1.8 0.8203 -3.55 1.8789 -5.31 3.1289 c -1.68 1.332 -3.13 2.9687 -4.38 4.8398 c -1.25 1.8789 -2.3 3.9922 -3.12 6.4102 c -0.74 2.3789 -1.09 5.1601 -1.09 8.2812 v 24.0586 c 0 1.6406 0.15 3.4414 0.46 5.3203 c 0.39 1.8711 1.02 3.6719 1.88 5.461 c 0.82 1.8789 1.87 3.6406 3.12 5.3203 c 1.33 1.7502 2.89 3.2772 4.69 4.5272 c 1.88 1.25 3.99 2.223 6.41 2.973 c 2.5 0.82 5.23 1.25 8.28 1.25 h 32.03 c 1.64 0 3.44 -0.242 5.31 -0.629 c 1.96 -0.313 3.83 -0.902 5.63 -1.723 c 1.87 -0.859 3.63 -1.949 5.31 -3.277 c 1.76 -1.25 3.28 -2.8126 4.53 -4.6915 c 1.25 -1.8711 2.23 -4.0196 2.97 -6.4024 c 0.82 -2.4179 1.25 -5.1172 1.25 -8.1289 z" stroke-linecap="round"/>
</g>
		<g transform="matrix(0.1333 0 0 -0.1333 44.2486 39.4571)" id="path50">
<path style="stroke: none; stroke-width: 1; stroke-dasharray: none; stroke-linecap: butt; stroke-dashoffset: 0; stroke-linejoin: miter; stroke-miterlimit: 4; is-custom-font: none; font-file-url: none; fill: rgb(67,150,202); fill-rule: nonzero; opacity: 1;" transform=" translate(-2131.875, -79.0605)" d="m 2172.03 59.1406 h -7.97 l -0.15 -0.3125 c 0 -2.9297 -0.43 -5.5468 -1.25 -7.8086 c -0.75 -2.3086 -1.72 -4.3398 -2.97 -6.0976 c -1.17 -1.8008 -2.58 -3.2813 -4.22 -4.5313 c -1.68 -1.25 -3.4 -2.3008 -5.16 -3.1211 c -1.68 -0.8593 -3.43 -1.4882 -5.31 -1.8789 c -1.8 -0.3125 -3.44 -0.4687 -5 -0.4687 h -24.22 c -4.18 0 -7.77 0.7773 -10.78 2.3476 c -3.05 1.6407 -5.55 3.6289 -7.5 5.9297 c -1.88 2.3906 -3.28 5 -4.22 7.8203 c -0.94 2.8086 -1.48 5.3907 -1.56 7.8086 v 8.1211 c 0 3.6406 0.51 6.7617 1.56 9.3789 c 1.02 2.5821 2.38 4.8828 4.06 6.8711 c -1.99 2.3906 -3.43 5 -4.37 7.8203 c -0.86 2.8907 -1.25 5.6602 -1.25 8.2813 c 0 4.3712 0.78 8.0392 2.34 11.0902 c 1.64 3.129 3.67 5.629 6.1 7.5 c 2.38 1.879 5 3.199 7.81 4.058 c 2.81 0.821 5.39 1.25 7.81 1.25 h 40.16 V 107.27 h -40.16 c -1.25 0 -2.34 -0.239 -3.28 -0.629 c -0.94 -0.43 -1.8 -1.02 -2.5 -1.719 c -0.74 -0.742 -1.33 -1.641 -1.72 -2.652 c -0.31 -0.942 -0.43 -1.961 -0.31 -2.9692 c 0 -2.6211 0.7 -4.6524 2.19 -6.1016 c 1.44 -1.3594 3.32 -2.0273 5.62 -2.0273 H 2140 V 75.2305 h -24.22 c -2.5 0 -4.45 -0.7813 -5.78 -2.3399 c -1.37 -1.5625 -2.03 -3.5508 -2.03 -5.9414 v -7.6484 c 0 -2.4219 0.7 -4.3789 2.19 -5.9414 c 1.44 -1.4805 3.32 -2.1875 5.62 -2.1875 h 24.06 c 2.5 0 4.42 0.707 5.78 2.1875 c 1.45 1.4414 2.19 3.3594 2.19 5.7812 c 0 1.9492 0.35 3.9102 1.1 5.7813 c 0.7 1.8789 1.75 3.5976 3.12 5.1562 c 1.33 1.5625 3.01 2.8125 5 3.75 c 1.95 0.9414 4.26 1.4024 6.88 1.4024 h 8.12 z" stroke-linecap="round"/>
</g>
		<g transform="matrix(0.1333 0 0 -0.1333 64.2844 38.915)" id="path52">
<path style="stroke: none; stroke-width: 1; stroke-dasharray: none; stroke-linecap: butt; stroke-dashoffset: 0; stroke-linejoin: miter; stroke-miterlimit: 4; is-custom-font: none; font-file-url: none; fill: rgb(67,150,202); fill-rule: nonzero; opacity: 1;" transform=" translate(-2282.145, -83.1248)" d="m 2331.13 75.2305 c 0 -6.0508 -1.05 -11.5586 -3.12 -16.5586 c -2.11 -5 -4.96 -9.3321 -8.6 -12.9727 c -3.67 -3.6679 -7.96 -6.5195 -12.96 -8.5898 c -5 -1.9883 -10.43 -2.9688 -16.25 -2.9688 h -47.97 c -1.37 0 -2.62 0.1992 -3.75 0.6289 c -1.06 0.5 -2 1.1289 -2.82 1.8711 c -0.74 0.8203 -1.36 1.7578 -1.87 2.8086 c -0.43 1.1406 -0.63 2.3516 -0.63 3.6016 v 80.1482 c 0 1.25 0.2 2.391 0.63 3.442 c 0.51 1.129 1.13 2.109 1.87 2.968 c 0.82 0.821 1.76 1.442 2.82 1.871 c 1.13 0.399 2.38 0.629 3.75 0.629 h 47.97 c 5.82 0 11.25 -1.058 16.25 -3.129 c 5 -1.992 9.29 -4.8 12.96 -8.429 c 3.64 -3.672 6.49 -7.973 8.6 -12.973 c 2.07 -5 3.12 -10.4686 3.12 -16.4061 z m -17.81 15.9414 c 0 3.4375 -0.59 6.5586 -1.72 9.3791 c -1.05 2.89 -2.62 5.347 -4.69 7.34 c -1.99 2.07 -4.45 3.668 -7.34 4.839 c -2.81 1.141 -5.94 1.719 -9.37 1.719 h -39.22 V 51.9492 h 39.22 c 3.43 0 6.56 0.5117 9.37 1.5703 c 2.89 1.1289 5.35 2.6914 7.34 4.6797 c 2.07 2.0703 3.64 4.5313 4.69 7.3516 c 1.13 2.8906 1.72 6.1289 1.72 9.6797 z" stroke-linecap="round"/>
</g>
		<g transform="matrix(0.1333 0 0 -0.1333 78.16 40.5193)" id="path54">
<path style="stroke: none; stroke-width: 1; stroke-dasharray: none; stroke-linecap: butt; stroke-dashoffset: 0; stroke-linejoin: miter; stroke-miterlimit: 4; is-custom-font: none; font-file-url: none; fill: rgb(67,150,202); fill-rule: nonzero; opacity: 1;" transform=" translate(-2386.21, -71.0958)" d="m 2427.15 59.1406 c 0 -3.1211 -0.43 -5.9023 -1.25 -8.2812 c -0.74 -2.418 -1.72 -4.5313 -2.97 -6.4102 c -1.25 -1.8711 -2.77 -3.5078 -4.53 -4.8398 c -1.68 -1.25 -3.44 -2.3086 -5.31 -3.1289 c -1.8 -0.8594 -3.68 -1.4805 -5.63 -1.8711 c -1.87 -0.3086 -3.67 -0.4688 -5.31 -0.4688 h -32.03 c -2.5 0 -5.24 0.3907 -8.13 1.25 c -2.93 0.9375 -5.62 2.3789 -8.12 4.3789 c -2.42 1.9493 -4.46 4.5313 -6.1 7.6524 c -1.68 3.1992 -2.5 7.1094 -2.5 11.7187 v 24.0586 c 0 4.461 0.82 8.2813 2.5 11.4102 c 1.64 3.1992 3.68 5.8206 6.1 7.8126 c 2.5 1.957 5.19 3.359 8.12 4.219 c 2.89 0.937 5.63 1.41 8.13 1.41 h 32.03 c 4.57 0 8.44 -0.86 11.56 -2.5 c 3.2 -1.68 5.82 -3.75 7.81 -6.2502 c 1.96 -2.4219 3.36 -5.082 4.22 -7.9727 c 0.94 -2.9297 1.41 -5.6289 1.41 -8.1289 z m -17.81 23.9102 c 0 2.3789 -0.63 4.1406 -1.88 5.3086 c -1.17 1.25 -2.93 1.8711 -5.31 1.8711 h -31.88 c -2.42 0 -4.22 -0.6211 -5.47 -1.8711 c -1.17 -1.168 -1.71 -2.8906 -1.71 -5.1602 V 59.1406 c 0 -2.4218 0.54 -4.2187 1.71 -5.4687 c 1.25 -1.1719 3.05 -1.7227 5.47 -1.7227 h 31.88 c 2.38 0 4.14 0.5508 5.31 1.7227 c 1.25 1.25 1.88 3.0469 1.88 5.4687 z" stroke-linecap="round"/>
</g>
		<g transform="matrix(0.1333 0 0 -0.1333 92.6855 40.5193)" id="path56">
<path style="stroke: none; stroke-width: 1; stroke-dasharray: none; stroke-linecap: butt; stroke-dashoffset: 0; stroke-linejoin: miter; stroke-miterlimit: 4; is-custom-font: none; font-file-url: none; fill: rgb(67,150,202); fill-rule: nonzero; opacity: 1;" transform=" translate(-2495.155, -71.0958)" d="m 2508.2 34.1406 h -17.81 v 49.0586 c 0 2.2696 -0.62 3.9922 -1.87 5.1602 c -1.25 1.25 -3.09 1.8711 -5.47 1.8711 h -23.13 V 34.1406 h -17.81 v 65.1602 c 0 1.1292 0.19 2.2192 0.62 3.2772 c 0.51 1.133 1.18 2.07 2.04 2.813 c 0.82 0.82 1.75 1.449 2.81 1.879 c 1.13 0.5 2.34 0.781 3.59 0.781 h 32.03 c 2.5 0 5.16 -0.473 7.97 -1.41 c 2.81 -0.86 5.47 -2.192 7.97 -4.063 v 5.473 h 24.06 c 1.64 0 3.44 -0.242 5.32 -0.629 c 1.87 -0.313 3.75 -0.902 5.62 -1.723 c 1.88 -0.859 3.63 -1.949 5.31 -3.277 c 1.64 -1.25 3.13 -2.8126 4.38 -4.6915 c 1.33 -1.8711 2.38 -4.0196 3.12 -6.4024 c 0.82 -2.4179 1.25 -5.1172 1.25 -8.1289 V 34.1406 h -17.81 v 49.0586 c 0 2.2696 -0.62 3.9922 -1.87 5.1602 c -1.18 1.25 -2.93 1.8711 -5.32 1.8711 h -15.93 c 0.62 -2.1797 0.93 -4.5313 0.93 -7.0313 z" stroke-linecap="round"/>
</g>
		<g transform="matrix(0.1333 0 0 -0.1333 106.6913 40.5193)" id="path58">
<path style="stroke: none; stroke-width: 1; stroke-dasharray: none; stroke-linecap: butt; stroke-dashoffset: 0; stroke-linejoin: miter; stroke-miterlimit: 4; is-custom-font: none; font-file-url: none; fill: rgb(67,150,202); fill-rule: nonzero; opacity: 1;" transform=" translate(-2600.195, -71.0958)" d="m 2640.74 58.6719 c 0 -2.5 -0.47 -5.2305 -1.4 -8.1211 c -0.86 -2.8203 -2.27 -5.4297 -4.22 -7.8203 c -1.88 -2.4219 -4.38 -4.4492 -7.5 -6.0899 c -3.13 -1.6797 -6.96 -2.5 -11.41 -2.5 h -32.03 c -2.5 0 -5.16 0.3907 -7.97 1.25 c -2.81 0.9375 -5.47 2.3399 -7.97 4.2188 c -2.42 1.9492 -4.45 4.5312 -6.09 7.6601 c -1.68 3.1211 -2.5 6.9102 -2.5 11.4024 c 0 2.3789 0.39 5 1.25 7.8086 c 0.94 2.8984 2.34 5.5508 4.22 7.9687 c 1.95 2.5 4.53 4.5703 7.65 6.25 c 3.13 1.6406 6.92 2.5 11.41 2.5 h 32.03 V 66.1719 h -32.03 c -2.42 0 -4.3 -0.7422 -5.63 -2.1914 c -1.36 -1.4805 -2.03 -3.2813 -2.03 -5.461 c 0 -2.4297 0.78 -4.2187 2.35 -5.4687 c 1.56 -1.25 3.36 -1.8789 5.47 -1.8789 h 31.87 c 2.38 0 4.26 0.707 5.63 2.1875 c 1.32 1.4414 2.03 3.2812 2.03 5.4687 v 24.6914 c 0 2.3789 -0.75 4.25 -2.19 5.6211 c -1.48 1.3282 -3.28 2.0313 -5.47 2.0313 h -39.06 v 16.8791 h 39.06 c 2.5 0 5.16 -0.473 7.97 -1.41 c 2.81 -0.86 5.39 -2.262 7.81 -4.219 c 2.5 -1.871 4.57 -4.3712 6.25 -7.5001 c 1.64 -3.1211 2.5 -6.9531 2.5 -11.4024 z" stroke-linecap="round"/>
</g>
		<g transform="matrix(0.1333 0 0 -0.1333 115.3538 38.4355)" id="path60">
<path style="stroke: none; stroke-width: 1; stroke-dasharray: none; stroke-linecap: butt; stroke-dashoffset: 0; stroke-linejoin: miter; stroke-miterlimit: 4; is-custom-font: none; font-file-url: none; fill: rgb(67,150,202); fill-rule: nonzero; opacity: 1;" transform=" translate(-2665.1557, -86.7206)" d="m 2674.06 123.199 h -17.8086 v 16.1016 h 17.8086 z m 0 -89.0584 h -17.8086 v 73.9102 h 17.8086 z" stroke-linecap="round"/>
</g>
		<g transform="matrix(0.1333 0 0 -0.1333 124.2592 40.5193)" id="path62">
<path style="stroke: none; stroke-width: 1; stroke-dasharray: none; stroke-linecap: butt; stroke-dashoffset: 0; stroke-linejoin: miter; stroke-miterlimit: 4; is-custom-font: none; font-file-url: none; fill: rgb(67,150,202); fill-rule: nonzero; opacity: 1;" transform=" translate(-2731.955, -71.0958)" d="m 2772.97 34.1406 h -17.81 v 41.0899 c 0 2.2695 -0.43 4.3008 -1.25 6.0976 c -0.86 1.8711 -1.96 3.4727 -3.29 4.8438 c -1.36 1.3281 -2.96 2.3476 -4.84 2.9687 c -1.8 0.6992 -3.75 1.0899 -5.94 1.0899 h -31.09 V 34.1406 h -17.81 v 65.1602 c 0 1.1292 0.19 2.2192 0.62 3.2772 c 0.51 1.133 1.17 2.07 2.03 2.813 c 0.82 0.82 1.76 1.449 2.82 1.879 c 1.13 0.5 2.34 0.781 3.59 0.781 h 40 c 2.27 0 4.61 -0.281 7.03 -0.781 c 2.5 -0.551 4.92 -1.372 7.35 -2.5 c 2.5 -1.059 4.84 -2.469 7.03 -4.219 c 2.18 -1.6799 4.1 -3.7502 5.78 -6.2502 c 1.76 -2.4219 3.16 -5.2422 4.22 -8.4414 c 1.01 -3.1289 1.56 -6.6797 1.56 -10.6289 z" stroke-linecap="round"/>
</g>
		<g transform="matrix(0.1333 0 0 -0.1333 136.4101 40.5193)" id="path64">
<path style="stroke: none; stroke-width: 1; stroke-dasharray: none; stroke-linecap: butt; stroke-dashoffset: 0; stroke-linejoin: miter; stroke-miterlimit: 4; is-custom-font: none; font-file-url: none; fill: rgb(67,150,202); fill-rule: nonzero; opacity: 1;" transform=" translate(-2823.085, -71.0958)" d="m 2860.12 59.1406 c 0 -3.1211 -0.43 -5.9023 -1.25 -8.2812 c -0.75 -2.418 -1.8 -4.5313 -3.13 -6.4102 c -1.25 -1.8711 -2.73 -3.5078 -4.37 -4.8398 c -1.68 -1.25 -3.44 -2.3086 -5.32 -3.1289 c -1.87 -0.8594 -3.75 -1.4805 -5.62 -1.8711 c -1.88 -0.3086 -3.67 -0.4688 -5.31 -0.4688 h -48.13 v 17.8086 h 47.97 c 2.38 0 4.22 0.5508 5.47 1.7227 c 1.25 1.25 1.87 3.0469 1.87 5.4687 c -0.23 4.6875 -2.61 7.0313 -7.18 7.0313 h -27.5 c -3.99 0 -7.35 0.6679 -10.16 2.0273 c -2.73 1.3321 -4.92 3.0508 -6.56 5.1602 c -1.68 2.0703 -2.93 4.2617 -3.75 6.5625 c -0.74 2.3789 -1.1 4.6094 -1.1 6.7187 c 0 3.9492 0.67 7.2696 2.04 10 c 1.44 2.6992 3.2 4.8794 5.31 6.5584 c 2.19 1.762 4.53 3.012 7.03 3.75 c 2.58 0.711 5 1.102 7.19 1.102 h 43.59 V 90.2305 h -43.59 c -0.86 0 -1.53 -0.1094 -2.03 -0.3086 c -0.55 -0.2305 -0.94 -0.4727 -1.25 -0.7813 c -0.24 -0.3125 -0.39 -0.6992 -0.47 -1.0898 c 0 -0.4297 0 -0.7813 0 -1.1016 c 0 -0.7383 0.08 -1.3281 0.31 -1.7187 c 0.31 -0.4297 0.62 -0.7422 0.94 -0.9297 c 0.31 -0.2422 0.66 -0.3203 1.09 -0.3203 c 0.51 0 0.98 0 1.41 0 h 27.5 c 4.57 0 8.43 -0.8594 11.56 -2.5 c 3.2 -1.6797 5.82 -3.75 7.81 -6.25 c 1.96 -2.4219 3.36 -5.0703 4.22 -7.961 c 0.94 -2.9297 1.41 -5.6289 1.41 -8.1289 z" stroke-linecap="round"/>
</g>
		<g transform="matrix(0.1333 0 0 -0.1333 155.8471 38.915)" id="path66">
<path style="stroke: none; stroke-width: 1; stroke-dasharray: none; stroke-linecap: butt; stroke-dashoffset: 0; stroke-linejoin: miter; stroke-miterlimit: 4; is-custom-font: none; font-file-url: none; fill: rgb(67,150,202); fill-rule: nonzero; opacity: 1;" transform=" translate(-2968.865, -83.1248)" d="m 3017.85 91.1719 c 0 -4.0625 -0.55 -7.7305 -1.56 -10.9414 c -0.94 -3.1211 -2.31 -5.9297 -4.06 -8.4297 c -1.68 -2.4219 -3.68 -4.5 -5.94 -6.25 c -2.19 -1.6797 -4.49 -3.0899 -6.88 -4.2227 c -2.42 -1.0586 -4.84 -1.8398 -7.34 -2.3476 c -2.5 -0.5391 -4.84 -0.7813 -7.03 -0.7813 h -40.16 v 17.8203 h 40.16 c 2.26 0.1914 4.3 0.6602 6.09 1.4024 c 1.88 0.6992 3.48 1.7187 4.85 2.9687 c 1.32 1.25 2.38 2.7305 3.12 4.5313 c 0.7 1.8789 1.1 3.9492 1.1 6.25 v 8.1289 c -0.32 2.1792 -0.86 4.2192 -1.57 6.0902 c -0.74 1.879 -1.72 3.437 -2.97 4.687 c -1.25 1.332 -2.77 2.383 -4.53 3.121 c -1.79 0.821 -3.83 1.25 -6.09 1.25 h -40.16 c -2.3 0 -4.06 -0.621 -5.31 -1.871 c -1.25 -1.25 -1.87 -3.047 -1.87 -5.308 V 34.1406 h -17.82 V 107.27 c 0 4.449 0.82 8.32 2.5 11.558 c 1.64 3.203 3.75 5.781 6.25 7.652 c 2.5 1.961 5.2 3.36 8.13 4.219 c 2.89 0.942 5.62 1.41 8.12 1.41 h 40.16 c 3.94 0 7.54 -0.55 10.78 -1.558 c 3.2 -0.942 6.02 -2.313 8.44 -4.071 c 2.38 -1.679 4.41 -3.671 6.09 -5.929 c 1.76 -2.192 3.2 -4.531 4.38 -7.031 c 1.13 -2.43 1.91 -4.848 2.34 -7.348 c 0.51 -2.422 0.78 -4.692 0.78 -6.8712 z" stroke-linecap="round"/>
</g>
		<g transform="matrix(0.1333 0 0 -0.1333 168.4002 40.5193)" id="path68">
<path style="stroke: none; stroke-width: 1; stroke-dasharray: none; stroke-linecap: butt; stroke-dashoffset: 0; stroke-linejoin: miter; stroke-miterlimit: 4; is-custom-font: none; font-file-url: none; fill: rgb(67,150,202); fill-rule: nonzero; opacity: 1;" transform=" translate(-3063.01, -71.0958)" d="m 3095.51 90.2305 h -40 c -2.42 0 -4.22 -0.6211 -5.47 -1.8711 c -1.17 -1.168 -1.72 -2.8906 -1.72 -5.1602 V 34.1406 h -17.81 v 49.0586 c 0 3.0117 0.35 5.711 1.09 8.1289 c 0.82 2.3828 1.88 4.5313 3.13 6.4024 c 1.32 1.8789 2.85 3.4415 4.53 4.6915 c 1.64 1.328 3.36 2.418 5.15 3.277 c 1.88 0.821 3.75 1.41 5.63 1.723 c 1.95 0.387 3.75 0.629 5.31 0.629 h 40.16 z" stroke-linecap="round"/>
</g>
		<g transform="matrix(0.1333 0 0 -0.1333 179.514 40.5193)" id="path70">
<path style="stroke: none; stroke-width: 1; stroke-dasharray: none; stroke-linecap: butt; stroke-dashoffset: 0; stroke-linejoin: miter; stroke-miterlimit: 4; is-custom-font: none; font-file-url: none; fill: rgb(67,150,202); fill-rule: nonzero; opacity: 1;" transform=" translate(-3146.365, -71.0958)" d="m 3187.3 59.1406 c 0 -3.1211 -0.42 -5.9023 -1.25 -8.2812 c -0.74 -2.418 -1.71 -4.5313 -2.96 -6.4102 c -1.25 -1.8711 -2.78 -3.5078 -4.54 -4.8398 c -1.67 -1.25 -3.43 -2.3086 -5.31 -3.1289 c -1.79 -0.8594 -3.67 -1.4805 -5.62 -1.8711 c -1.88 -0.3086 -3.67 -0.4688 -5.32 -0.4688 h -32.03 c -2.5 0 -5.23 0.3907 -8.12 1.25 c -2.93 0.9375 -5.63 2.3789 -8.13 4.3789 c -2.42 1.9493 -4.45 4.5313 -6.09 7.6524 c -1.68 3.1992 -2.5 7.1094 -2.5 11.7187 v 24.0586 c 0 4.461 0.82 8.2813 2.5 11.4102 c 1.64 3.1992 3.67 5.8206 6.09 7.8126 c 2.5 1.957 5.2 3.359 8.13 4.219 c 2.89 0.937 5.62 1.41 8.12 1.41 h 32.03 c 4.58 0 8.44 -0.86 11.57 -2.5 c 3.2 -1.68 5.82 -3.75 7.81 -6.2502 c 1.95 -2.4219 3.36 -5.082 4.22 -7.9727 c 0.94 -2.9297 1.4 -5.6289 1.4 -8.1289 z m -17.81 23.9102 c 0 2.3789 -0.62 4.1406 -1.87 5.3086 c -1.17 1.25 -2.93 1.8711 -5.32 1.8711 h -31.87 c -2.42 0 -4.22 -0.6211 -5.47 -1.8711 c -1.17 -1.168 -1.72 -2.8906 -1.72 -5.1602 V 59.1406 c 0 -2.4218 0.55 -4.2187 1.72 -5.4687 c 1.25 -1.1719 3.05 -1.7227 5.47 -1.7227 h 31.87 c 2.39 0 4.15 0.5508 5.32 1.7227 c 1.25 1.25 1.87 3.0469 1.87 5.4687 z" stroke-linecap="round"/>
</g>
		<g transform="matrix(0.1333 0 0 -0.1333 192.8532 40.5299)" id="path72">
<path style="stroke: none; stroke-width: 1; stroke-dasharray: none; stroke-linecap: butt; stroke-dashoffset: 0; stroke-linejoin: miter; stroke-miterlimit: 4; is-custom-font: none; font-file-url: none; fill: rgb(67,150,202); fill-rule: nonzero; opacity: 1;" transform=" translate(-3246.41, -71.0157)" d="m 3290.55 108.051 c -2 -6.25 -4.34 -12.4299 -7.03 -18.4416 c -2.74 -6.0586 -5.86 -11.8399 -9.38 -17.3399 c -3.44 -5.5507 -7.34 -10.6289 -11.72 -15.3203 c -4.3 -4.6094 -9.02 -8.5898 -14.22 -12.0273 c -5.23 -3.4414 -10.9 -6.1719 -17.03 -8.1211 c -6.17 -1.8789 -12.77 -2.8203 -19.84 -2.8203 c -1.25 0 -2.46 0.1992 -3.6 0.6289 c -1.05 0.5117 -1.99 1.1289 -2.81 1.8711 c -0.86 0.8203 -1.52 1.7578 -2.03 2.8203 c -0.43 1.1289 -0.62 2.3398 -0.62 3.5898 v 65.1604 h 17.81 V 52.4219 c 4.37 0 8.51 0.9375 12.5 2.8086 c 3.94 1.8789 7.69 4.3008 11.25 7.3476 c 3.63 3.1211 6.95 6.6016 10 10.4727 c 3.01 3.9375 5.66 8 7.97 12.1797 c 2.38 4.1484 4.41 8.2109 6.09 12.1914 c 1.64 3.9491 2.89 7.5001 3.75 10.6291 z" stroke-linecap="round"/>
</g>
		<g transform="matrix(0.1333 0 0 -0.1333 200.8124 38.4355)" id="path74">
<path style="stroke: none; stroke-width: 1; stroke-dasharray: none; stroke-linecap: butt; stroke-dashoffset: 0; stroke-linejoin: miter; stroke-miterlimit: 4; is-custom-font: none; font-file-url: none; fill: rgb(67,150,202); fill-rule: nonzero; opacity: 1;" transform=" translate(-3306.0957, -86.7206)" d="m 3315 123.199 h -17.8086 v 16.1016 H 3315 Z m 0 -89.0584 h -17.8086 v 73.9102 H 3315 Z" stroke-linecap="round"/>
</g>
		<g transform="matrix(0.1333 0 0 -0.1333 209.6027 38.4355)" id="path76">
<path style="stroke: none; stroke-width: 1; stroke-dasharray: none; stroke-linecap: butt; stroke-dashoffset: 0; stroke-linejoin: miter; stroke-miterlimit: 4; is-custom-font: none; font-file-url: none; fill: rgb(67,150,202); fill-rule: nonzero; opacity: 1;" transform=" translate(-3372.03, -86.7208)" d="m 3412.97 59.1406 c 0 -3.1211 -0.43 -5.9023 -1.25 -8.2812 c -0.74 -2.418 -1.72 -4.5313 -2.97 -6.4102 c -1.25 -1.8711 -2.73 -3.5078 -4.37 -4.8398 c -1.68 -1.25 -3.44 -2.3086 -5.32 -3.1289 c -1.87 -0.8594 -3.75 -1.4805 -5.62 -1.8711 c -1.88 -0.3086 -3.67 -0.4688 -5.32 -0.4688 h -32.18 c -3.05 0 -5.74 0.3477 -8.13 1.0899 c -2.42 0.8203 -4.53 1.8789 -6.4 3.1289 c -1.88 1.332 -3.52 2.8515 -4.85 4.5312 c -1.25 1.6407 -2.3 3.4375 -3.12 5.3086 c -0.74 1.8789 -1.33 3.75 -1.72 5.6289 c -0.43 1.8711 -0.63 3.6328 -0.63 5.3125 v 24.0586 c 0 4.461 0.82 8.2813 2.5 11.4102 c 1.64 3.1992 3.75 5.8206 6.25 7.8126 c 2.5 1.957 5.2 3.359 8.13 4.219 c 2.89 0.937 5.55 1.41 7.97 1.41 h 32.18 V 90.2305 h -32.03 c -2.3 0 -4.06 -0.6211 -5.31 -1.8711 c -1.25 -1.168 -1.87 -2.8906 -1.87 -5.1602 V 59.3008 c 0 -2.5 0.54 -4.3789 1.71 -5.6289 c 1.26 -1.1719 3.01 -1.7227 5.32 -1.7227 h 32.18 c 2.39 0 4.15 0.5508 5.32 1.7227 c 1.25 1.25 1.87 3.0469 1.87 5.4687 v 80.1604 h 17.66 z" stroke-linecap="round"/>
</g>
		<g transform="matrix(0.1333 0 0 -0.1333 222.5453 40.5193)" id="path78">
<path style="stroke: none; stroke-width: 1; stroke-dasharray: none; stroke-linecap: butt; stroke-dashoffset: 0; stroke-linejoin: miter; stroke-miterlimit: 4; is-custom-font: none; font-file-url: none; fill: rgb(67,150,202); fill-rule: nonzero; opacity: 1;" transform=" translate(-3469.1, -71.0958)" d="m 3509.57 83.5195 c 0 -2.4297 -0.43 -5.0781 -1.25 -7.9687 c -0.86 -2.8203 -2.27 -5.4727 -4.22 -7.9727 c -1.99 -2.4179 -4.53 -4.457 -7.65 -6.0976 c -3.13 -1.5586 -6.88 -2.3399 -11.25 -2.3399 h -32.19 v 16.8789 h 32.19 c 2.38 0 4.21 0.6993 5.46 2.1797 c 1.33 1.4492 2.04 3.2813 2.04 5.4727 c 0 2.3789 -0.75 4.2187 -2.19 5.4687 c -1.49 1.3282 -3.24 2.0313 -5.31 2.0313 h -32.19 c -2.42 0 -4.3 -0.7813 -5.63 -2.3438 c -1.25 -1.4883 -1.87 -3.2773 -1.87 -5.4687 V 58.6719 c 0 -2.4219 0.7 -4.293 2.19 -5.6211 c 1.44 -1.25 3.28 -1.8789 5.46 -1.8789 h 32.04 V 34.1406 h -32.19 c -2.42 0 -5.08 0.3907 -7.97 1.25 c -2.81 0.9375 -5.47 2.3399 -7.97 4.2188 c -2.42 1.9492 -4.45 4.5312 -6.09 7.6601 c -1.57 3.1211 -2.35 6.9102 -2.35 11.4024 v 24.8476 c 0 2.5 0.39 5.1524 1.25 7.961 c 0.82 2.8984 2.23 5.5508 4.22 7.9687 c 1.95 2.3908 4.53 4.4218 7.66 6.1018 c 3.12 1.64 6.87 2.5 11.25 2.5 h 32.19 c 2.38 0 5 -0.473 7.81 -1.41 c 2.89 -0.86 5.54 -2.262 7.97 -4.219 c 2.5 -1.871 4.53 -4.3712 6.09 -7.5001 c 1.64 -3.1211 2.5 -6.9531 2.5 -11.4024 z" stroke-linecap="round"/>
</g>
		<g transform="matrix(0.1333 0 0 -0.1333 233.8429 40.5193)" id="path80">
<path style="stroke: none; stroke-width: 1; stroke-dasharray: none; stroke-linecap: butt; stroke-dashoffset: 0; stroke-linejoin: miter; stroke-miterlimit: 4; is-custom-font: none; font-file-url: none; fill: rgb(67,150,202); fill-rule: nonzero; opacity: 1;" transform=" translate(-3553.83, -71.0958)" d="m 3586.33 90.2305 h -40 c -2.42 0 -4.22 -0.6211 -5.47 -1.8711 c -1.17 -1.168 -1.72 -2.8906 -1.72 -5.1602 V 34.1406 h -17.81 v 49.0586 c 0 3.0117 0.35 5.711 1.09 8.1289 c 0.82 2.3828 1.88 4.5313 3.13 6.4024 c 1.33 1.8789 2.85 3.4415 4.53 4.6915 c 1.64 1.328 3.36 2.418 5.15 3.277 c 1.88 0.821 3.75 1.41 5.63 1.723 c 1.95 0.387 3.75 0.629 5.31 0.629 h 40.16 z" stroke-linecap="round"/>
</g>
		<g transform="matrix(0.1333 0 0 -0.1333 -227.6463 40.2843)" id="path82">
<path style="stroke: none; stroke-width: 1; stroke-dasharray: none; stroke-linecap: butt; stroke-dashoffset: 0; stroke-linejoin: miter; stroke-miterlimit: 4; is-custom-font: none; font-file-url: none; fill: rgb(237,28,36); fill-rule: nonzero; opacity: 1;" transform=" translate(-92.676, -72.8555)" d="m 97.9297 80.8984 c 0 -4.0586 -0.5508 -7.7382 -1.5586 -10.9375 c -0.9414 -3.1211 -2.3125 -5.9414 -4.0703 -8.4414 c -1.6797 -2.4179 -3.6719 -4.4882 -5.9297 -6.25 c -2.1914 -1.6797 -4.4922 -3.0781 -6.8828 -4.2187 c -2.418 -1.0508 -4.8399 -1.832 -7.3399 -2.3399 c -2.5 -0.5507 -4.8476 -0.7812 -7.0273 -0.7812 H 24.9609 v 17.8086 h 40.1602 c 2.2578 0.2031 4.2891 0.6719 6.0898 1.4101 c 1.8789 0.7032 3.4805 1.7227 4.8399 2.9727 c 1.3281 1.25 2.3906 2.7305 3.1289 4.5273 c 0.6992 1.8711 1.0898 3.9414 1.0898 6.25 v 8.1211 c -0.3086 2.1914 -0.8593 4.2188 -1.5586 6.1016 c -0.7421 1.8672 -1.7226 3.4297 -2.9726 4.6797 c -1.25 1.3282 -2.7695 2.3902 -4.5274 3.1292 c -1.8007 0.82 -3.832 1.25 -6.0898 1.25 H 24.9609 c -2.3007 0 -4.0625 -0.629 -5.3125 -1.879 c -1.25 -1.25 -1.8789 -3.0393 -1.8789 -5.3127 V 23.8711 H -0.0390625 v 73.1172 c 0 4.4607 0.8203125 8.3207 2.5000025 11.5627 c 1.64062 3.211 3.75 5.789 6.25 7.66 c 2.49996 1.949 5.19926 3.359 8.12886 4.219 c 2.8907 0.941 5.6211 1.41 8.1211 1.41 h 40.1602 c 3.9375 0 7.5391 -0.551 10.7773 -1.57 c 3.2032 -0.93 6.0118 -2.301 8.4414 -4.059 c 2.379 -1.68 4.4102 -3.672 6.0899 -5.941 c 1.7617 -2.18 3.1992 -4.532 4.3711 -7.032 c 1.1406 -2.418 1.918 -4.8396 2.3476 -7.3396 c 0.5118 -2.4179 0.7813 -4.6875 0.7813 -6.8789 z m 87.4613 -32.5 c 0 -2.5 -0.469 -5.2382 -1.411 -8.1289 c -0.859 -2.8086 -2.261 -5.4297 -4.21 -7.8086 c -1.879 -2.4218 -4.379 -4.4492 -7.5 -6.0898 c -3.129 -1.6797 -6.961 -2.5 -11.411 -2.5 h -32.031 c -2.5 0 -5.156 0.3906 -7.969 1.25 c -2.808 0.9297 -5.468 2.3398 -7.968 4.2187 c -2.422 1.9493 -4.45 4.5313 -6.09 7.6485 c -1.68 3.1328 -2.5 6.9219 -2.5 11.4101 c 0 2.3829 0.39 5 1.25 7.8125 c 0.929 2.8907 2.34 5.5508 4.219 7.9688 c 1.949 2.5 4.531 4.5703 7.652 6.25 c 3.129 1.6406 6.918 2.5 11.406 2.5 h 32.031 V 55.8984 h -32.031 c -2.418 0 -4.297 -0.7382 -5.629 -2.1875 c -1.359 -1.4804 -2.027 -3.2812 -2.027 -5.4726 c 0 -2.418 0.777 -4.2188 2.348 -5.4688 c 1.558 -1.25 3.359 -1.8711 5.46 -1.8711 h 31.879 c 2.379 0 4.262 0.7032 5.621 2.1914 c 1.329 1.4415 2.04 3.2813 2.04 5.461 v 24.6875 c 0 2.3828 -0.75 4.2617 -2.192 5.6328 c -1.488 1.3281 -3.277 2.0273 -5.469 2.0273 h -39.058 v 16.8711 h 39.058 c 2.5 0 5.161 -0.4687 7.969 -1.3984 c 2.813 -0.8594 5.391 -2.2695 7.813 -4.2227 c 2.5 -1.8789 4.57 -4.3789 6.25 -7.5 c 1.64 -3.1289 2.5 -6.9492 2.5 -11.4101 z" stroke-linecap="round"/>
</g>
		<g transform="matrix(0.1333 0 0 -0.1333 -207.4442 39.8056)" id="path84">
<path style="stroke: none; stroke-width: 1; stroke-dasharray: none; stroke-linecap: butt; stroke-dashoffset: 0; stroke-linejoin: miter; stroke-miterlimit: 4; is-custom-font: none; font-file-url: none; fill: rgb(237,28,36); fill-rule: nonzero; opacity: 1;" transform=" translate(-244.1798, -76.4451)" d="M 287.461 23.8711 H 261.84 l -35.789 34.5273 c -2.102 1.8711 -3.039 4.1407 -2.813 6.8711 c 0.082 1.25 0.391 2.4297 0.942 3.6016 c 0.621 1.1289 1.41 2.0703 2.34 2.8086 l 32.5 26.25 h 28.441 l -41.871 -33.75 z m -68.75 0 h -17.8125 v 105.148 h 17.8125 z" stroke-linecap="round"/>
</g>
		<g transform="matrix(0.1333 0 0 -0.1333 -199.1195 39.8055)" id="path86">
<path style="stroke: none; stroke-width: 1; stroke-dasharray: none; stroke-linecap: butt; stroke-dashoffset: 0; stroke-linejoin: miter; stroke-miterlimit: 4; is-custom-font: none; font-file-url: none; fill: rgb(237,28,36); fill-rule: nonzero; opacity: 1;" transform=" translate(-306.6058, -76.4455)" d="m 315.512 112.93 h -17.8125 v 16.0898 h 17.8125 z m 0 -89.0589 h -17.8125 v 73.8984 h 17.8125 z" stroke-linecap="round"/>
</g>
		<g transform="matrix(0.1333 0 0 -0.1333 -191.0794 41.8894)" id="path88">
<path style="stroke: none; stroke-width: 1; stroke-dasharray: none; stroke-linecap: butt; stroke-dashoffset: 0; stroke-linejoin: miter; stroke-miterlimit: 4; is-custom-font: none; font-file-url: none; fill: rgb(237,28,36); fill-rule: nonzero; opacity: 1;" transform=" translate(-366.914, -60.8203)" d="m 403.949 48.8711 c 0 -3.1328 -0.429 -5.9023 -1.25 -8.2813 c -0.75 -2.4296 -1.801 -4.539 -3.129 -6.4101 c -1.25 -1.8789 -2.73 -3.5195 -4.371 -4.8399 c -1.679 -1.25 -3.437 -2.3085 -5.32 -3.1289 c -1.867 -0.8593 -3.75 -1.4804 -5.617 -1.8711 c -1.883 -0.3203 -3.672 -0.4687 -5.313 -0.4687 H 330.82 v 17.8086 h 47.969 c 2.383 0 4.223 0.5508 5.473 1.7187 c 1.25 1.25 1.867 3.0508 1.867 5.4727 c -0.231 4.6797 -2.609 7.0273 -7.18 7.0273 h -27.5 c -3.988 0 -7.347 0.6602 -10.16 2.0313 c -2.738 1.332 -4.918 3.0508 -6.559 5.1601 c -1.679 2.0704 -2.929 4.25 -3.75 6.5586 c -0.75 2.3829 -1.101 4.6133 -1.101 6.7227 c 0 3.9375 0.672 7.2578 2.031 10 c 1.449 2.6875 3.211 4.8789 5.32 6.5586 c 2.18 1.7617 4.532 3.0117 7.032 3.75 c 2.578 0.6992 5 1.0898 7.187 1.0898 h 43.59 V 79.9609 h -43.59 c -0.859 0 -1.527 -0.1211 -2.039 -0.3125 c -0.539 -0.2382 -0.93 -0.4687 -1.25 -0.7773 c -0.23 -0.3203 -0.39 -0.7109 -0.461 -1.1016 c 0 -0.4297 0 -0.7812 0 -1.0898 c 0 -0.7383 0.071 -1.3281 0.313 -1.7188 c 0.308 -0.4296 0.617 -0.7421 0.937 -0.9414 c 0.313 -0.2304 0.66 -0.3086 1.09 -0.3086 c 0.512 0 0.981 0 1.41 0 h 27.5 c 4.571 0 8.43 -0.8593 11.563 -2.5 c 3.199 -1.6796 5.816 -3.75 7.808 -6.25 c 1.95 -2.4218 3.36 -5.082 4.219 -7.9726 c 0.941 -2.9297 1.41 -5.6172 1.41 -8.1172 z" stroke-linecap="round"/>
</g>
		<g transform="matrix(0.1333 0 0 -0.1333 -180.4804 40.2843)" id="path90">
<path style="stroke: none; stroke-width: 1; stroke-dasharray: none; stroke-linecap: butt; stroke-dashoffset: 0; stroke-linejoin: miter; stroke-miterlimit: 4; is-custom-font: none; font-file-url: none; fill: rgb(237,28,36); fill-rule: nonzero; opacity: 1;" transform=" translate(-446.4065, -72.8555)" d="M 482.422 79.9609 H 451.48 V 23.8711 H 433.52 V 79.9609 H 410.391 V 97.7695 H 433.52 V 121.84 h 17.96 V 97.7695 h 30.942 z" stroke-linecap="round"/>
</g>
		<g transform="matrix(0.1333 0 0 -0.1333 -169.8662 41.8894)" id="path92">
<path style="stroke: none; stroke-width: 1; stroke-dasharray: none; stroke-linecap: butt; stroke-dashoffset: 0; stroke-linejoin: miter; stroke-miterlimit: 4; is-custom-font: none; font-file-url: none; fill: rgb(237,28,36); fill-rule: nonzero; opacity: 1;" transform=" translate(-526.014, -60.8203)" d="m 566.559 48.3984 c 0 -2.5 -0.469 -5.2382 -1.399 -8.1289 c -0.859 -2.8086 -2.269 -5.4297 -4.219 -7.8086 c -1.882 -2.4218 -4.382 -4.4492 -7.5 -6.0898 c -3.132 -1.6797 -6.961 -2.5 -11.41 -2.5 H 510 c -2.5 0 -5.16 0.3906 -7.969 1.25 c -2.812 0.9297 -5.472 2.3398 -7.972 4.2187 c -2.418 1.9493 -4.45 4.5313 -6.09 7.6485 c -1.68 3.1328 -2.5 6.9219 -2.5 11.4101 c 0 2.3829 0.39 5 1.25 7.8125 c 0.941 2.8907 2.34 5.5508 4.222 7.9688 c 1.95 2.5 4.528 4.5703 7.649 6.25 c 3.129 1.6406 6.922 2.5 11.41 2.5 h 32.031 V 55.8984 H 510 c -2.422 0 -4.301 -0.7382 -5.621 -2.1875 c -1.367 -1.4804 -2.039 -3.2812 -2.039 -5.4726 c 0 -2.418 0.781 -4.2188 2.351 -5.4688 c 1.559 -1.25 3.36 -1.8711 5.469 -1.8711 h 31.871 c 2.379 0 4.258 0.7032 5.629 2.1914 c 1.32 1.4415 2.031 3.2813 2.031 5.461 v 24.6875 c 0 2.3828 -0.742 4.2617 -2.191 5.6328 c -1.48 1.3281 -3.281 2.0273 -5.469 2.0273 h -39.062 v 16.8711 h 39.062 c 2.5 0 5.16 -0.4687 7.969 -1.3984 c 2.809 -0.8594 5.391 -2.2695 7.809 -4.2227 c 2.5 -1.8789 4.57 -4.3789 6.25 -7.5 c 1.64 -3.1289 2.5 -6.9492 2.5 -11.4101 z" stroke-linecap="round"/>
</g>
		<g transform="matrix(0.1333 0 0 -0.1333 -156.9647 41.8894)" id="path94">
<path style="stroke: none; stroke-width: 1; stroke-dasharray: none; stroke-linecap: butt; stroke-dashoffset: 0; stroke-linejoin: miter; stroke-miterlimit: 4; is-custom-font: none; font-file-url: none; fill: rgb(237,28,36); fill-rule: nonzero; opacity: 1;" transform=" translate(-622.7755, -60.8203)" d="M 663.789 23.8711 H 645.98 v 41.0898 c 0 2.2696 -0.429 4.3008 -1.25 6.0899 c -0.859 1.8789 -1.96 3.4805 -3.281 4.8476 c -1.371 1.3321 -2.969 2.3399 -4.847 2.9727 c -1.801 0.6992 -3.75 1.0898 -5.942 1.0898 H 599.57 V 23.8711 h -17.808 v 65.1484 c 0 1.1407 0.187 2.2305 0.617 3.2813 c 0.512 1.1406 1.172 2.0781 2.031 2.8203 c 0.82 0.8203 1.762 1.4375 2.82 1.8672 c 1.129 0.5117 2.34 0.7812 3.59 0.7812 h 40 c 2.27 0 4.61 -0.2695 7.032 -0.7812 c 2.5 -0.5391 4.918 -1.3672 7.347 -2.5 c 2.5 -1.0469 4.84 -2.457 7.031 -4.2188 c 2.18 -1.6797 4.098 -3.75 5.782 -6.25 c 1.758 -2.4179 3.16 -5.2304 4.218 -8.4297 c 1.008 -3.1289 1.559 -6.6796 1.559 -10.6289 z" stroke-linecap="round"/>
</g>
		<g transform="matrix(0.1333 0 0 -0.1333 -148.6776 36.5882)" id="path96">
<path style="stroke: none; stroke-width: 1; stroke-dasharray: none; stroke-linecap: butt; stroke-dashoffset: 0; stroke-linejoin: miter; stroke-miterlimit: 4; is-custom-font: none; font-file-url: none; fill: rgb(237,28,36); fill-rule: nonzero; opacity: 1;" transform=" translate(-684.92, -100.5842)" d="m 690.469 83.3984 h -11.25 l -2.66 34.3716 h 16.722 z" stroke-linecap="round"/>
</g>
		<g transform="matrix(0.1333 0 0 -0.1333 -140.9854 41.8894)" id="path98">
<path style="stroke: none; stroke-width: 1; stroke-dasharray: none; stroke-linecap: butt; stroke-dashoffset: 0; stroke-linejoin: miter; stroke-miterlimit: 4; is-custom-font: none; font-file-url: none; fill: rgb(237,28,36); fill-rule: nonzero; opacity: 1;" transform=" translate(-742.619, -60.8203)" d="m 779.648 48.8711 c 0 -3.1328 -0.429 -5.9023 -1.25 -8.2813 c -0.738 -2.4296 -1.796 -4.539 -3.128 -6.4101 c -1.25 -1.8789 -2.731 -3.5195 -4.372 -4.8399 c -1.679 -1.25 -3.437 -2.3085 -5.308 -3.1289 c -1.879 -0.8593 -3.75 -1.4804 -5.629 -1.8711 c -1.871 -0.3203 -3.672 -0.4687 -5.313 -0.4687 H 706.52 v 17.8086 h 47.968 c 2.391 0 4.223 0.5508 5.473 1.7187 c 1.25 1.25 1.879 3.0508 1.879 5.4727 c -0.238 4.6797 -2.621 7.0273 -7.192 7.0273 h -27.5 c -3.988 0 -7.347 0.6602 -10.16 2.0313 c -2.726 1.332 -4.918 3.0508 -6.558 5.1601 c -1.68 2.0704 -2.93 4.25 -3.75 6.5586 c -0.739 2.3829 -1.09 4.6133 -1.09 6.7227 c 0 3.9375 0.66 7.2578 2.031 10 c 1.438 2.6875 3.199 4.8789 5.309 6.5586 c 2.191 1.7617 4.531 3.0117 7.031 3.75 c 2.578 0.6992 5 1.0898 7.187 1.0898 h 43.59 V 79.9609 h -43.59 c -0.859 0 -1.527 -0.1211 -2.027 -0.3125 c -0.551 -0.2382 -0.941 -0.4687 -1.25 -0.7773 c -0.242 -0.3203 -0.391 -0.7109 -0.473 -1.1016 c 0 -0.4297 0 -0.7812 0 -1.0898 c 0 -0.7383 0.082 -1.3281 0.313 -1.7188 c 0.309 -0.4296 0.629 -0.7421 0.937 -0.9414 c 0.313 -0.2304 0.661 -0.3086 1.09 -0.3086 c 0.512 0 0.981 0 1.41 0 h 27.5 c 4.571 0 8.442 -0.8593 11.563 -2.5 c 3.199 -1.6796 5.82 -3.75 7.809 -6.25 c 1.96 -2.4218 3.359 -5.082 4.218 -7.9726 c 0.942 -2.9297 1.41 -5.6172 1.41 -8.1172 z" stroke-linecap="round"/>
</g>
		<g transform="matrix(0.1333 0 0 -0.1333 -122.6106 40.5557)" id="path100">
<path style="stroke: none; stroke-width: 1; stroke-dasharray: none; stroke-linecap: butt; stroke-dashoffset: 0; stroke-linejoin: miter; stroke-miterlimit: 4; is-custom-font: none; font-file-url: none; fill: rgb(237,28,36); fill-rule: nonzero; opacity: 1;" transform=" translate(-880.432, -70.8205)" d="m 845.82 95.2695 h 14.692 l 5 22.5005 h 16.558 l -5 -22.5005 h 17.192 l 5 22.5005 h 16.558 l -5 -22.5005 h 15.782 l -3.59 -15.9297 h -15.633 l -3.59 -16.7187 h 15 l -3.437 -15.9414 h -15.153 l -5 -22.8086 H 878.48 l 5.149 22.8086 h -17.18 l -5 -22.8086 H 844.73 l 5 22.8086 h -15.468 l 3.75 15.9414 h 15.308 l 3.59 16.7187 h -14.84 z m 24.059 -32.6484 h 17.191 l 3.59 16.7187 h -17.031 z" stroke-linecap="round"/>
</g>
		<g transform="matrix(0.1333 0 0 -0.1333 -112.9433 40.2843)" id="path102">
<path style="stroke: none; stroke-width: 1; stroke-dasharray: none; stroke-linecap: butt; stroke-dashoffset: 0; stroke-linejoin: miter; stroke-miterlimit: 4; is-custom-font: none; font-file-url: none; fill: rgb(237,28,36); fill-rule: nonzero; opacity: 1;" transform=" translate(-952.9295, -72.8555)" d="M 969.879 23.8711 H 952.07 V 104.18 h -16.09 v 17.66 h 33.899 z" stroke-linecap="round"/>
</g>
</g>
</g>
</svg>
