<svg xmlns="http://www.w3.org/2000/svg" enable-background="new 0 0 600 600" viewBox="0 0 600 600" id="cloud-data"><linearGradient id="a" x1="282.954" x2="302.424" y1="129.325" y2="275.737" gradientUnits="userSpaceOnUse"><stop offset="0" stop-color="#cedcf9" stop-opacity="0"></stop><stop offset="1" stop-color="#c3d2ff"></stop></linearGradient><path fill="url(#a)" d="M545.473 217.45c-10.359 37.323-20.758 74.634-31.107 111.966-5.17 18.546-10.697 37.832-22.022 51.269-15.1 17.886-37.282 21.725-57.96 22.975-29.901 1.89-319.75 3.63-335.08 0-18.546-4.429-46.107-20.535-52.272-46.52-3.755-15.697 3.855-32.093 12.78-43.36 31.275-39.452-56.556-171.043 9.472-198.526 37.65-15.677 96.277 36.961 152.863-26.744 23.108-26.005 79.663-7.729 98.847 9.847 12.929 11.838 26.664 16.266 42.511 22.405 21.993 8.549 45.749 3.32 68.15-3.409 22.41-6.698 45.14-14.867 68.05-11.927 22.899 2.96 46.465 20.155 52.63 48.189 4.652 21.035-1.125 43.26-6.862 63.836z"></path><linearGradient id="b" x1="307.444" x2="297.028" y1="528.621" y2="423.845" gradientUnits="userSpaceOnUse"><stop offset="0" stop-color="#cedcf9" stop-opacity="0"></stop><stop offset="1" stop-color="#c3d2ff"></stop></linearGradient><path fill="url(#b)" d="M551.162 498.944c-19.119 48.665-218.312 14.068-241.828 6.84l-.09-.03c-5.211-1.618-10.742-1.868-16.064-.63-32.538 7.579-70.974 12.85-107.281 12.85-87.496 0-129.533-30.622-129.533-50.281 0-6.08 18.412-3.785 18.71-16.814.359-14.987-26.529-17.583-30.637-28.357-7.043-18.501 111.688-17.892 111.688-17.892h221.436s161.056-4.783 171.261 16.105c10.186 20.898-78.772 29.854-78.772 29.854s89.933 25.9 81.11 48.355z"></path><path fill="#909eff" d="M483.24 422.665h8.913v68.01h-8.913z"></path><path fill="#7a8aee" d="M480.716 483.589h13.966v10.298h-13.966z"></path><path fill="#909eff" d="M523.856 497.655v.01a2.535 2.535 0 0 1-2.53 2.53h-67.253a2.535 2.535 0 0 1-2.53-2.53c0-1.047.424-1.983 1.104-2.674a3.813 3.813 0 0 1 2.675-1.104h64.767a3.763 3.763 0 0 1 3.767 3.768z"></path><path fill="#7a8aee" d="M522.681 504.665a4.471 4.471 0 0 1-4.47 4.48 4.471 4.471 0 0 1-4.469-4.48 4.469 4.469 0 1 1 8.94 0zM461.656 504.665a4.471 4.471 0 0 1-4.469 4.48 4.471 4.471 0 0 1-4.47-4.48 4.469 4.469 0 1 1 8.94 0z"></path><path fill="#ffdad9" d="m394.846 482.96.258 12.568c.01.06.06.11.13.11l13.59-.15.664-6.452.586-5.639-15.228-.437z"></path><path fill="#373a50" d="M378.884 508.254c0 .09.01.189.01.288.02.248.218.447.466.447 3.147.03 20.211.317 28.887.03 2.115-.07 3.654-2.016 3.256-4.09l-2.352-9.838-14.027-.616c-.03 0-.05 0-.07.02l-11.356 7.644c-2.839 1.43-4.814 3.266-4.814 6.115z"></path><path fill="#657bff" d="m467.098 381.405-22.665 32.802-1.53 2.22-31.338 10.383v63.138l-3.816-.057-14.181-.189s-12.679-68.665-7.152-83.138c6.17-16.155 64.961-26.746 64.961-26.746l15.721 1.587z"></path><path fill="#5062eb" d="m444.433 414.207-1.53 2.22-31.338 10.383v63.138l-3.816-.057c-.832-5.366-1.21-10.789-1.588-16.202-.708-10.241-1.426-20.492-2.135-30.733-.463-6.576-.907-13.302.926-19.623 2.116-7.331 7.161-13.538 13.094-18.337 3.959-3.203 13.463-11.64 18.943-8.75 5.612 2.958 7.038 11.451 7.444 17.96z"></path><path fill="#ffdad9" d="M468.56 341.813s-.678 1.194-1.862 3.098c-4.508 7.328-16.279 25.189-23.897 25.425-5.39.162-12.556-5.81-19.12-12.879-9.296-10.049-19.665-21.778-19.665-21.778l4.085-11.548 29.686 21.577 6.51-8.296 11.05 2.001 9.533 1.722 3.68.678z"></path><path fill="#fecdcb" d="M466.701 344.91c-4.516 7.33-16.278 25.186-23.902 25.423-5.385.17-12.556-5.801-19.112-12.877 2.484.245 4.997.254 7.482.028 6.424-.576 12.83-2.834 17.62-7.152a22.224 22.224 0 0 0 3.883-4.63c1.218-1.936 2.144-4.07 2.673-6.291.284-1.181.454-2.381.492-3.59.018-.539-.237-1.814.198-2.24.548-.528 1.483.265 2.022.586 1.559.936 2.957 2.117 4.185 3.449a21.26 21.26 0 0 1 2.636 3.524 22.718 22.718 0 0 1 1.823 3.77z"></path><path fill="#ff4129" d="m459.474 306.703-.586 16.127-.982 26.897-9.089-6.65-6.906-5.045c6.188-12.188 12.867-26.983 17.563-31.329z"></path><path fill="#c70000" d="m458.888 322.83-.982 26.897-9.089-6.65c.416-.35.803-.737 1.181-1.153 3.07-3.392 4.176-8.135 4.544-12.698 0-1.634-.453-8.843 1.304-8.937.973-.047 2.05 1.086 3.042 2.541z"></path><path fill="#ffdad9" d="m438.637 478.74 6.108 10.986a.13.13 0 0 0 .165.036l11.941-6.49-2.43-6.014-2.121-5.257-13.663 6.739z"></path><path fill="#373a50" d="M436.363 508.562c.042.08.097.162.144.25.134.21.402.293.621.177 2.795-1.446 18.012-9.176 25.545-13.49 1.836-1.05 2.286-3.49.964-5.138l-6.682-7.593-12.685 6.018c-.026.014-.044.024-.052.05l-6.46 12.07c-1.84 2.591-2.728 5.138-1.395 7.656z"></path><path fill="#657bff" d="m517.23 398.842-2.42 9.68a7.153 7.153 0 0 1-5.572 5.286l-65.884 12.835 13.386 49.111c.827 1.693-17.275 10.543-18.103 8.85 0 0-33.183-50.89-26.086-72.188 4.944-14.838 50.715-32.35 50.715-32.35l53.964 18.776z"></path><path fill="#ff4129" d="M518.852 400.357c-1.417 1.776-54.598-9.76-67.475-20.539 0 0 .917-4.648 1.918-10.449.482-2.72.973-5.697 1.408-8.569.69-4.525 1.228-8.796 1.275-11.375.218-10.713-3.845-34.852 3.496-42.722 8.796-9.419 43.033-8.72 49.93 2.174 9.646 15.248 9.448 91.48 9.448 91.48z"></path><path fill="#c70000" d="M493.372 350.21c-4.403 10.883-16.108 17.411-27.757 18.923-4.1.538-8.21.557-12.32.236.482-2.72.973-5.697 1.408-8.569 6.245-3.222 11.705-7.964 15.579-13.831 2.91-4.403 4.95-9.287 7.067-14.087 2.626-5.951 6.613-16.183 13.614-7.926 5.385 6.358 5.385 17.903 2.409 25.254z"></path><path fill="#fadf68" d="M524.464 353.615a4.666 4.666 0 0 0-4.185 4.72c.217 12.456.304 46.015-20.973 52.048-23.836 6.76-32.613 3.003-36.52 5.052-1.487.78-2.982 7.263 1.122 9.24 4.105 1.976 46.647 1.483 56.936-7.635 9.541-8.456 9.058-44.878 8.789-58.874-.053-2.74-2.444-4.84-5.17-4.551z"></path><path fill="#eac250" d="M520.841 417.034c-10.286 9.125-52.83 9.62-56.93 7.64-1.925-.926-2.625-2.83-2.657-4.68 9.114 1.409 45.74.311 55.197-8.07 9.415-8.35 9.07-43.964 8.79-58.329a4.676 4.676 0 0 1 4.39 4.573c.27 13.999.754 50.42-8.79 58.866z"></path><path fill="#111228" d="M424.982 367.716v2.617h-38.956l-18.9-49.249h3.26l18.391 45.69z"></path><path fill="#373a50" d="M386.026 370.333h-54.877l-17.898-49.873 53.876.624z"></path><path fill="#ebf2ff" d="M556 371.998v10.824c0 .916-.738 1.669-1.668 1.669H272.934c-.93 0-1.668-.753-1.668-1.669v-10.824c0-.93.738-1.668 1.668-1.668h281.398c.93 0 1.668.738 1.668 1.668z"></path><path fill="#7a8aee" d="M532.611 384.491h9.033v124.654h-9.033zM285.621 384.491h9.033v124.654h-9.033z"></path><path fill="#ffdad9" d="m503.455 352.064-4.223 11.237a10.834 10.834 0 0 1-10.145 7.029h-68.022l-1.898-10.236 55.877-6.506 6.793-13.279 21.618 11.755z"></path><path fill="#ff4129" d="M501.002 308.796c-5.885-2.227-10.921 2.623-15.484 10.764-3.202 5.713-8.113 22.704-8.113 22.704-1.352 3.709 27.62 14.912 28.973 11.203 0 0 3.711-19.15 4.09-27.89.209-4.806-.617-13.434-9.466-16.781z"></path><path fill="#ffdad9" d="M492.818 281.643c-1.36 5.18-1.95 11.716-2.22 18.82 0 0-14.764 10.148-20.589 8.579-2.494-.678 4.59-7.752 4.59-7.752l-.21-6.996-.802-8.55 8.67-4.311 10.56.21z"></path><path fill="#fecdcb" d="M484.522 285.801c-2.223 3.839-10.134 8.493-10.134 8.493l-.8-8.55 8.668-4.311c.666.8 2.921 3.24 2.266 4.368z"></path><path fill="#ffdad9" d="M466.362 290.322c7.687 4.111 24.89-8.879 26.562-10.143.087-.087.13-.117.13-.117s6.708-1.17 6.315-6.794c-.566-7.846-6.097-2.592-6.097-2.592l4.389-14.094-5.798-8.428-27.012 3.168s-1.177 6.233-1.918 13.745c-1.017 10.2-1.22 22.77 3.43 25.255z"></path><path fill="#111228" d="M460.453 262.622c1.032.29 25.015-1.828 26.715-1.596 1.976.276 2.69 10.522 3.954 11.176 1.264.653 2.15-1.526 2.15-1.526s5.53-5.254 6.097 2.592c.393 5.624-6.292 6.79-6.292 6.79s-1.51 1.101-1.597 1.188l-.176 9.19c14.472-10.389 18.91-28.391 12.329-38.271-6.583-9.867-17.684-10.055-26.097-9.256-8.413.8-11.618-5.295-18.01-2.185-6.394 3.096-6.454 19.835.927 21.898z"></path><path fill="#ffdad9" d="M465.84 268.904c.234-.94.97-1.578 1.655-1.403.675.163 1.034 1.06.79 2M475.657 269.91c.233-.94.98-1.577 1.654-1.403.675.164 1.034 1.06.801 2.001"></path><path fill="#111228" d="M478.113 270.512c-.237.947-.967 1.57-1.649 1.402-.674-.16-1.034-1.06-.805-2.007.235-.938.975-1.57 1.648-1.402.682.169 1.043 1.061.806 2.007zM468.29 269.505c-.229.947-.967 1.57-1.64 1.403-.683-.16-1.043-1.061-.806-2.007.228-.939.967-1.57 1.649-1.402.673.168 1.034 1.06.797 2.006zM465.778 266.66c.204-.316.445-.605.786-.807a1.727 1.727 0 0 1 1.215-.241c.455.097.811.393 1.02.729.178.342.28.715.339 1.08a5.014 5.014 0 0 1-.782-.698c-.244-.193-.485-.337-.724-.376-.501-.121-1.111.139-1.854.314zM476.36 267.458c.203-.316.444-.605.785-.807a1.724 1.724 0 0 1 1.215-.241c.455.096.811.392 1.02.728.179.342.28.715.339 1.081a5.012 5.012 0 0 1-.782-.699c-.244-.193-.485-.336-.724-.375-.501-.122-1.111.138-1.854.313zM471.799 268.795c-.012.953-.077 1.9-.151 2.846-.083.938-.117 1.905-.468 2.856-.176.465-.477.92-.833 1.256-.347.335-.675.64-.808 1.025-.264.83.362 1.7.962 2.4-.373-.294-.732-.616-1.017-1.025-.265-.414-.434-.938-.316-1.476.124-.55.536-.916.84-1.253.322-.328.548-.684.706-1.107.325-.832.383-1.789.554-2.722.153-.936.315-1.872.53-2.8z"></path><path fill="#fff" d="M472.244 282.114c-.185 1.807-1.613 3.14-3.184 2.98-1.562-.16-2.69-1.756-2.504-3.563.003-.032.014-.056.016-.08 1.557.538 3.445.731 5.672.581-.002.025.003.05 0 .082z"></path><path fill="#ffdad9" d="m408.101 324.131-4.085 11.548s-19.071-2.895-18.678-14.074c.405-11.18 17.365-.262 17.365-.262s-.656-2.897 1.704-4.47c2.372-1.573 3.694 7.258 3.694 7.258zM421.067 370.326l-21.755.014c-2.305-13.02 15.548-9.44 16.45-9.235-.267-.14-2.255-1.291-1.17-4.132 1.162-3.056 4.996 3.12 4.996 3.12l1.479 10.233z"></path><path fill="#373a50" d="M329.46 326.026h-1v-4h1v4zm0-8h-1v-4h1v4zm0-8h-1v-4h1v4zm0-8h-1v-4h1v4zm0-8h-1v-4h1v4zm0-8h-1v-4h1v4zm0-8h-1v-4h1v4zm0-8h-1v-4h1v4zm.27-7.82-.955-.298a6.957 6.957 0 0 1 2.434-3.472l.607.795a5.95 5.95 0 0 0-2.086 2.974zm5.506-4.194-.033-1 .235-.004h3.781v1l-3.983.004zm11.983-.004h-4v-1h4v1zm4.117-.29-.286-.958a5.95 5.95 0 0 0 3-2.048l.788.617a6.942 6.942 0 0 1-3.502 2.39zm4.974-6.363-.998-.049c.004-.09.006-.183.006-.275v-3.7h1v3.7c0 .109-.002.217-.008.324zm.008-8.024h-1v-4h1v4zm0-8h-1v-4h1v4zm0-8h-1v-4h1v4zm0-8h-1v-4h1v4zm0-8h-1v-4h1v4zm0-8h-1v-4h1v4zm0-8h-1v-4h1v4zm0-8h-1v-4h1v4zm0-8h-1v-4h1v4zm0-8h-1v-4h1v4zm0-8h-1v-4h1v4zm0-8h-1v-4h1v4zm0-8h-1v-4h1v4zm-207.106-2.684h-1v-4h1v4zm207.106-5.316h-1v-4h1v4zm-207.106-2.684h-1v-4h1v4zm207.106-5.316h-1v-4h1v4zm-207.106-2.684h-1v-4h1v4zm207.106-5.316h-1v-4h1v4zm-208.106-2.684v-.016c0-1.451.442-2.844 1.278-4.025l.816.577a5.938 5.938 0 0 0-1.094 3.448l-1 .016zm208.106-5.316h-1v-.677h-2.323v-1h3.323v1.677zm-203.115-.34-.332-.943a6.973 6.973 0 0 1 2.319-.394h1.805v1h-1.805a5.97 5.97 0 0 0-1.987.338zm195.792-.337h-4v-1h4v1zm-8 0h-4v-1h4v1zm-8 0h-4v-1h4v1zm-8 0h-4v-1h4v1zm-8 0h-4v-1h4v1zm-8 0h-4v-1h4v1zm-8 0h-4v-1h4v1zm-8 0h-4v-1h4v1zm-8 0h-4v-1h4v1zm-8 0h-4v-1h4v1zm-8 0h-4v-1h4v1zm-8 0h-4v-1h4v1zm-8 0h-4v-1h4v1zm-8 0h-4v-1h4v1zm-8 0h-4v-1h4v1zm-8 0h-4v-1h4v1zm-8 0h-4v-1h4v1zm-8 0h-4v-1h4v1zm-8 0h-4v-1h4v1zm-8 0h-4v-1h4v1zm-8 0h-4v-1h4v1zm-8 0h-4v-1h4v1zm-8 0h-4v-1h4v1zm-8 0h-4v-1h4v1z"></path><linearGradient id="c" x1="99.256" x2="51.365" y1="301.53" y2="301.53" gradientUnits="userSpaceOnUse"><stop offset="0" stop-color="#909eff"></stop><stop offset="1" stop-color="#6977e3"></stop></linearGradient><path fill="url(#c)" d="M44 142.62h36.775v317.819H44z"></path><linearGradient id="d" x1="65.675" x2="204.834" y1="301.53" y2="301.53" gradientUnits="userSpaceOnUse"><stop offset="0" stop-color="#909eff"></stop><stop offset="1" stop-color="#6977e3"></stop></linearGradient><path fill="url(#d)" d="M65.675 142.62h139.159v317.819H65.675z"></path><path fill="#373a50" d="M-9.866 245.739h290.241V357.32H-9.866z" transform="rotate(90 135.254 301.53)"></path><linearGradient id="e" x1="191.045" x2="265.539" y1="305.937" y2="305.937" gradientUnits="userSpaceOnUse"><stop offset="0" stop-color="#909eff"></stop><stop offset="1" stop-color="#6977e3"></stop></linearGradient><path fill="url(#e)" d="M265.54 153.681v304.513l-51.83-8.038-9.067-1.4-13.598-2.11V156.412l7.069-.26 9.698-.35 15.776-.58 23.355-.86 11.668-.43z" opacity=".2"></path><linearGradient id="f" x1="191.045" x2="265.539" y1="305.743" y2="305.743" gradientUnits="userSpaceOnUse"><stop offset="0" stop-color="#909eff"></stop><stop offset="1" stop-color="#6977e3"></stop></linearGradient><path fill="url(#f)" d="M265.54 153.685V458.19l-74.495-11.543v-5.46l69.165 11.934V153.295z" opacity=".2"></path><path fill="#fff" d="M79.464 156.412h111.581v23.924H79.464z"></path><linearGradient id="g" x1="86.782" x2="95.469" y1="168.106" y2="168.106" gradientUnits="userSpaceOnUse"><stop offset="0" stop-color="#f34b6d"></stop><stop offset="1" stop-color="#e24067"></stop></linearGradient><circle cx="91.126" cy="168.106" r="4.343" fill="url(#g)"></circle><linearGradient id="h" x1="99.291" x2="103.036" y1="168.107" y2="168.107" gradientUnits="userSpaceOnUse"><stop offset="0" stop-color="#d1deff"></stop><stop offset="1" stop-color="#b2c7ff"></stop></linearGradient><path fill="url(#h)" d="M103.036 168.106a1.872 1.872 0 1 1-3.744.002 1.872 1.872 0 0 1 3.744-.002z"></path><linearGradient id="i" x1="104.829" x2="108.574" y1="168.107" y2="168.107" gradientUnits="userSpaceOnUse"><stop offset="0" stop-color="#ebf2ff"></stop><stop offset="1" stop-color="#e1e8ff"></stop></linearGradient><path fill="url(#i)" d="M108.574 168.106a1.872 1.872 0 1 1-3.744.002 1.872 1.872 0 0 1 3.744-.002z"></path><linearGradient id="j" x1="110.367" x2="114.112" y1="168.107" y2="168.107" gradientUnits="userSpaceOnUse"><stop offset="0" stop-color="#d1deff"></stop><stop offset="1" stop-color="#b2c7ff"></stop></linearGradient><path fill="url(#j)" d="M114.112 168.106a1.872 1.872 0 1 1-3.744.002 1.872 1.872 0 0 1 3.744-.002z"></path><linearGradient id="k" x1="115.905" x2="119.65" y1="168.107" y2="168.107" gradientUnits="userSpaceOnUse"><stop offset="0" stop-color="#ebf2ff"></stop><stop offset="1" stop-color="#e1e8ff"></stop></linearGradient><path fill="url(#k)" d="M119.65 168.106a1.872 1.872 0 1 1-3.744.002 1.872 1.872 0 0 1 3.744-.002z"></path><linearGradient id="l" x1="121.443" x2="125.188" y1="168.107" y2="168.107" gradientUnits="userSpaceOnUse"><stop offset="0" stop-color="#d1deff"></stop><stop offset="1" stop-color="#b2c7ff"></stop></linearGradient><path fill="url(#l)" d="M125.188 168.106a1.872 1.872 0 1 1-3.744.002 1.872 1.872 0 0 1 3.744-.002z"></path><linearGradient id="m" x1="126.981" x2="130.726" y1="168.107" y2="168.107" gradientUnits="userSpaceOnUse"><stop offset="0" stop-color="#d1deff"></stop><stop offset="1" stop-color="#b2c7ff"></stop></linearGradient><path fill="url(#m)" d="M130.726 168.106a1.872 1.872 0 1 1-3.745.002 1.872 1.872 0 0 1 3.745-.002z"></path><linearGradient id="n" x1="132.519" x2="136.264" y1="168.107" y2="168.107" gradientUnits="userSpaceOnUse"><stop offset="0" stop-color="#ebf2ff"></stop><stop offset="1" stop-color="#e1e8ff"></stop></linearGradient><path fill="url(#n)" d="M136.264 168.106a1.872 1.872 0 1 1-3.745.002 1.872 1.872 0 0 1 3.745-.002z"></path><linearGradient id="o" x1="138.057" x2="141.802" y1="168.107" y2="168.107" gradientUnits="userSpaceOnUse"><stop offset="0" stop-color="#d1deff"></stop><stop offset="1" stop-color="#b2c7ff"></stop></linearGradient><path fill="url(#o)" d="M141.802 168.106a1.872 1.872 0 1 1-3.745.002 1.872 1.872 0 0 1 3.745-.002z"></path><linearGradient id="p" x1="148.712" x2="150.441" y1="168.372" y2="168.372" gradientUnits="userSpaceOnUse"><stop offset="0" stop-color="#d1deff"></stop><stop offset="1" stop-color="#b2c7ff"></stop></linearGradient><path fill="url(#p)" d="M148.712 156.41h1.729v23.924h-1.729z"></path><linearGradient id="q" x1="156.553" x2="185.717" y1="165.214" y2="165.214" gradientUnits="userSpaceOnUse"><stop offset="0" stop-color="#909eff"></stop><stop offset="1" stop-color="#6977e3"></stop></linearGradient><path fill="url(#q)" d="M185.717 161.13v8.168c0 .58-.47 1.04-1.04 1.04h-27.084c-.57 0-1.04-.46-1.04-1.04v-8.168c0-.58.47-1.04 1.04-1.04h27.084c.57 0 1.04.46 1.04 1.04z"></path><path fill="#fff" d="M161.849 168.803a.43.43 0 0 1-.337-.7c1.068-1.345 4.68-5.724 6.227-5.53.84.102 1.335.963 1.815 1.796.632 1.096 1.07 1.748 1.809 1.595.793-.166 1.767-1.19 2.709-2.179 1.21-1.272 2.34-2.48 3.514-2.382 1.95.158 3.901 2.177 3.983 2.263a.431.431 0 0 1-.623.595c-.017-.019-1.808-1.868-3.43-1.999-.774-.056-1.85 1.096-2.82 2.117-1.032 1.086-2.1 2.208-3.157 2.429-1.413.295-2.14-.983-2.731-2.009-.374-.65-.761-1.32-1.174-1.371-.706-.095-3.4 2.636-5.447 5.212a.43.43 0 0 1-.338.163z"></path><linearGradient id="r" x1="157.852" x2="158.034" y1="175.06" y2="175.684" gradientUnits="userSpaceOnUse"><stop offset="0" stop-color="#fadf68"></stop><stop offset="1" stop-color="#eac250"></stop></linearGradient><path fill="url(#r)" d="M159.205 174.496a1.518 1.518 0 1 1-3.033 0 1.518 1.518 0 0 1 3.033 0z"></path><linearGradient id="s" x1="163.328" x2="163.302" y1="175.028" y2="175.392" gradientUnits="userSpaceOnUse"><stop offset="0" stop-color="#f34b6d"></stop><stop offset="1" stop-color="#e24067"></stop></linearGradient><path fill="url(#s)" d="M164.883 174.496a1.518 1.518 0 1 1-3.033 0 1.518 1.518 0 0 1 3.033 0z"></path><linearGradient id="t" x1="179.198" x2="179.198" y1="174.404" y2="175.578" gradientUnits="userSpaceOnUse"><stop offset="0" stop-color="#3dcfa4"></stop><stop offset="1" stop-color="#30bb93"></stop></linearGradient><path fill="url(#t)" d="M185.717 172.997v2.64c0 .4-.33.72-.72.72h-11.588c-.4 0-.73-.32-.73-.72v-2.64c0-.39.33-.72.73-.72h11.588c.39 0 .72.33.72.72z"></path><path fill="#fff" d="M79.464 184.588h111.581v23.924H79.464z"></path><linearGradient id="u" x1="86.782" x2="95.469" y1="196.282" y2="196.282" gradientUnits="userSpaceOnUse"><stop offset="0" stop-color="#f34b6d"></stop><stop offset="1" stop-color="#e24067"></stop></linearGradient><circle cx="91.126" cy="196.282" r="4.343" fill="url(#u)"></circle><linearGradient id="v" x1="99.291" x2="103.036" y1="196.283" y2="196.283" gradientUnits="userSpaceOnUse"><stop offset="0" stop-color="#d1deff"></stop><stop offset="1" stop-color="#b2c7ff"></stop></linearGradient><path fill="url(#v)" d="M103.036 196.282a1.872 1.872 0 1 1-3.744.003 1.872 1.872 0 0 1 3.744-.003z"></path><linearGradient id="w" x1="104.829" x2="108.574" y1="196.283" y2="196.283" gradientUnits="userSpaceOnUse"><stop offset="0" stop-color="#ebf2ff"></stop><stop offset="1" stop-color="#e1e8ff"></stop></linearGradient><path fill="url(#w)" d="M108.574 196.282a1.872 1.872 0 1 1-3.744.003 1.872 1.872 0 0 1 3.744-.003z"></path><linearGradient id="x" x1="110.367" x2="114.112" y1="196.283" y2="196.283" gradientUnits="userSpaceOnUse"><stop offset="0" stop-color="#d1deff"></stop><stop offset="1" stop-color="#b2c7ff"></stop></linearGradient><path fill="url(#x)" d="M114.112 196.282a1.872 1.872 0 1 1-3.744.003 1.872 1.872 0 0 1 3.744-.003z"></path><linearGradient id="y" x1="115.905" x2="119.65" y1="196.283" y2="196.283" gradientUnits="userSpaceOnUse"><stop offset="0" stop-color="#ebf2ff"></stop><stop offset="1" stop-color="#e1e8ff"></stop></linearGradient><path fill="url(#y)" d="M119.65 196.282a1.872 1.872 0 1 1-3.744.003 1.872 1.872 0 0 1 3.744-.003z"></path><linearGradient id="z" x1="121.443" x2="125.188" y1="196.283" y2="196.283" gradientUnits="userSpaceOnUse"><stop offset="0" stop-color="#d1deff"></stop><stop offset="1" stop-color="#b2c7ff"></stop></linearGradient><path fill="url(#z)" d="M125.188 196.282a1.872 1.872 0 1 1-3.745.003 1.872 1.872 0 0 1 3.745-.003z"></path><linearGradient id="A" x1="126.981" x2="130.726" y1="196.283" y2="196.283" gradientUnits="userSpaceOnUse"><stop offset="0" stop-color="#d1deff"></stop><stop offset="1" stop-color="#b2c7ff"></stop></linearGradient><path fill="url(#A)" d="M130.726 196.282a1.872 1.872 0 1 1-3.745.003 1.872 1.872 0 0 1 3.745-.003z"></path><linearGradient id="B" x1="132.519" x2="136.264" y1="196.283" y2="196.283" gradientUnits="userSpaceOnUse"><stop offset="0" stop-color="#ebf2ff"></stop><stop offset="1" stop-color="#e1e8ff"></stop></linearGradient><path fill="url(#B)" d="M136.264 196.282a1.872 1.872 0 1 1-3.745.003 1.872 1.872 0 0 1 3.745-.003z"></path><linearGradient id="C" x1="138.057" x2="141.802" y1="196.283" y2="196.283" gradientUnits="userSpaceOnUse"><stop offset="0" stop-color="#d1deff"></stop><stop offset="1" stop-color="#b2c7ff"></stop></linearGradient><path fill="url(#C)" d="M141.802 196.282a1.872 1.872 0 1 1-3.745.003 1.872 1.872 0 0 1 3.745-.003z"></path><linearGradient id="D" x1="148.712" x2="150.441" y1="196.548" y2="196.548" gradientUnits="userSpaceOnUse"><stop offset="0" stop-color="#d1deff"></stop><stop offset="1" stop-color="#b2c7ff"></stop></linearGradient><path fill="url(#D)" d="M148.712 184.586h1.729v23.924h-1.729z"></path><linearGradient id="E" x1="156.553" x2="185.717" y1="193.39" y2="193.39" gradientUnits="userSpaceOnUse"><stop offset="0" stop-color="#909eff"></stop><stop offset="1" stop-color="#6977e3"></stop></linearGradient><path fill="url(#E)" d="M185.717 189.306v8.168c0 .58-.47 1.04-1.04 1.04h-27.084c-.57 0-1.04-.46-1.04-1.04v-8.168c0-.58.47-1.04 1.04-1.04h27.084c.57 0 1.04.46 1.04 1.04z"></path><path fill="#fff" d="M161.849 196.979a.431.431 0 0 1-.337-.699c1.068-1.345 4.68-5.725 6.227-5.531.84.103 1.335.964 1.815 1.796.632 1.096 1.07 1.748 1.809 1.595.793-.165 1.767-1.189 2.709-2.178 1.21-1.273 2.34-2.481 3.514-2.382 1.95.157 3.901 2.176 3.983 2.262a.431.431 0 0 1-.623.596c-.017-.02-1.808-1.868-3.43-2-.774-.056-1.85 1.097-2.82 2.117-1.032 1.086-2.1 2.208-3.157 2.429-1.413.295-2.14-.983-2.731-2.009-.374-.649-.761-1.32-1.174-1.37-.706-.095-3.4 2.635-5.447 5.211a.43.43 0 0 1-.338.163z"></path><linearGradient id="F" x1="157.852" x2="158.034" y1="203.237" y2="203.861" gradientUnits="userSpaceOnUse"><stop offset="0" stop-color="#fadf68"></stop><stop offset="1" stop-color="#eac250"></stop></linearGradient><path fill="url(#F)" d="M159.205 202.672a1.518 1.518 0 1 1-3.033 0 1.518 1.518 0 0 1 3.033 0z"></path><linearGradient id="G" x1="163.328" x2="163.302" y1="203.204" y2="203.568" gradientUnits="userSpaceOnUse"><stop offset="0" stop-color="#f34b6d"></stop><stop offset="1" stop-color="#e24067"></stop></linearGradient><path fill="url(#G)" d="M164.883 202.672a1.518 1.518 0 1 1-3.033 0 1.518 1.518 0 0 1 3.033 0z"></path><linearGradient id="H" x1="179.198" x2="179.198" y1="202.58" y2="203.755" gradientUnits="userSpaceOnUse"><stop offset="0" stop-color="#3dcfa4"></stop><stop offset="1" stop-color="#30bb93"></stop></linearGradient><path fill="url(#H)" d="M185.717 201.174v2.639c0 .4-.33.72-.72.72h-11.588c-.4 0-.73-.32-.73-.72v-2.64c0-.39.33-.72.73-.72h11.588c.39 0 .72.33.72.72z"></path><path fill="#fff" d="M79.464 212.764h111.581v23.924H79.464z"></path><linearGradient id="I" x1="86.782" x2="95.469" y1="224.459" y2="224.459" gradientUnits="userSpaceOnUse"><stop offset="0" stop-color="#f34b6d"></stop><stop offset="1" stop-color="#e24067"></stop></linearGradient><circle cx="91.126" cy="224.459" r="4.343" fill="url(#I)"></circle><linearGradient id="J" x1="99.291" x2="103.036" y1="224.46" y2="224.46" gradientUnits="userSpaceOnUse"><stop offset="0" stop-color="#d1deff"></stop><stop offset="1" stop-color="#b2c7ff"></stop></linearGradient><path fill="url(#J)" d="M103.036 224.459a1.872 1.872 0 1 1-3.744.002 1.872 1.872 0 0 1 3.744-.002z"></path><linearGradient id="K" x1="104.829" x2="108.574" y1="224.46" y2="224.46" gradientUnits="userSpaceOnUse"><stop offset="0" stop-color="#ebf2ff"></stop><stop offset="1" stop-color="#e1e8ff"></stop></linearGradient><path fill="url(#K)" d="M108.574 224.459a1.872 1.872 0 1 1-3.744.002 1.872 1.872 0 0 1 3.744-.002z"></path><linearGradient id="L" x1="110.367" x2="114.112" y1="224.46" y2="224.46" gradientUnits="userSpaceOnUse"><stop offset="0" stop-color="#d1deff"></stop><stop offset="1" stop-color="#b2c7ff"></stop></linearGradient><path fill="url(#L)" d="M114.112 224.459a1.872 1.872 0 1 1-3.744.002 1.872 1.872 0 0 1 3.744-.002z"></path><linearGradient id="M" x1="115.905" x2="119.65" y1="224.46" y2="224.46" gradientUnits="userSpaceOnUse"><stop offset="0" stop-color="#ebf2ff"></stop><stop offset="1" stop-color="#e1e8ff"></stop></linearGradient><path fill="url(#M)" d="M119.65 224.459a1.872 1.872 0 1 1-3.744.002 1.872 1.872 0 0 1 3.744-.002z"></path><linearGradient id="N" x1="121.443" x2="125.188" y1="224.46" y2="224.46" gradientUnits="userSpaceOnUse"><stop offset="0" stop-color="#d1deff"></stop><stop offset="1" stop-color="#b2c7ff"></stop></linearGradient><path fill="url(#N)" d="M125.188 224.459a1.872 1.872 0 1 1-3.745.002 1.872 1.872 0 0 1 3.745-.002z"></path><linearGradient id="O" x1="126.981" x2="130.726" y1="224.46" y2="224.46" gradientUnits="userSpaceOnUse"><stop offset="0" stop-color="#d1deff"></stop><stop offset="1" stop-color="#b2c7ff"></stop></linearGradient><path fill="url(#O)" d="M130.726 224.459a1.872 1.872 0 1 1-3.745.002 1.872 1.872 0 0 1 3.745-.002z"></path><linearGradient id="P" x1="132.519" x2="136.264" y1="224.46" y2="224.46" gradientUnits="userSpaceOnUse"><stop offset="0" stop-color="#ebf2ff"></stop><stop offset="1" stop-color="#e1e8ff"></stop></linearGradient><path fill="url(#P)" d="M136.264 224.459a1.872 1.872 0 1 1-3.745.002 1.872 1.872 0 0 1 3.745-.002z"></path><linearGradient id="Q" x1="138.057" x2="141.802" y1="224.46" y2="224.46" gradientUnits="userSpaceOnUse"><stop offset="0" stop-color="#d1deff"></stop><stop offset="1" stop-color="#b2c7ff"></stop></linearGradient><path fill="url(#Q)" d="M141.802 224.459a1.872 1.872 0 1 1-3.745.002 1.872 1.872 0 0 1 3.745-.002z"></path><linearGradient id="R" x1="148.712" x2="150.441" y1="224.725" y2="224.725" gradientUnits="userSpaceOnUse"><stop offset="0" stop-color="#d1deff"></stop><stop offset="1" stop-color="#b2c7ff"></stop></linearGradient><path fill="url(#R)" d="M148.712 212.762h1.729v23.924h-1.729z"></path><linearGradient id="S" x1="156.553" x2="185.717" y1="221.567" y2="221.567" gradientUnits="userSpaceOnUse"><stop offset="0" stop-color="#909eff"></stop><stop offset="1" stop-color="#6977e3"></stop></linearGradient><path fill="url(#S)" d="M185.717 217.482v8.169c0 .58-.47 1.04-1.04 1.04h-27.084c-.57 0-1.04-.46-1.04-1.04v-8.169c0-.58.47-1.04 1.04-1.04h27.084c.57 0 1.04.46 1.04 1.04z"></path><path fill="#fff" d="M161.849 225.155a.43.43 0 0 1-.337-.699c1.068-1.345 4.68-5.724 6.227-5.53.84.102 1.335.963 1.815 1.795.632 1.097 1.07 1.749 1.809 1.596.793-.166 1.767-1.19 2.709-2.18 1.21-1.272 2.34-2.48 3.514-2.38 1.95.157 3.901 2.176 3.983 2.261a.431.431 0 0 1-.623.596c-.017-.019-1.808-1.868-3.43-1.999-.774-.056-1.85 1.096-2.82 2.117-1.032 1.085-2.1 2.208-3.157 2.428-1.413.296-2.14-.983-2.731-2.008-.374-.65-.761-1.32-1.174-1.371-.706-.095-3.4 2.636-5.447 5.212a.43.43 0 0 1-.338.162z"></path><linearGradient id="T" x1="157.852" x2="158.034" y1="231.413" y2="232.037" gradientUnits="userSpaceOnUse"><stop offset="0" stop-color="#fadf68"></stop><stop offset="1" stop-color="#eac250"></stop></linearGradient><path fill="url(#T)" d="M159.205 230.849a1.518 1.518 0 1 1-3.033 0 1.518 1.518 0 0 1 3.033 0z"></path><linearGradient id="U" x1="163.328" x2="163.302" y1="231.38" y2="231.744" gradientUnits="userSpaceOnUse"><stop offset="0" stop-color="#f34b6d"></stop><stop offset="1" stop-color="#e24067"></stop></linearGradient><path fill="url(#U)" d="M164.883 230.849a1.518 1.518 0 1 1-3.033 0 1.518 1.518 0 0 1 3.033 0z"></path><linearGradient id="V" x1="179.198" x2="179.198" y1="230.757" y2="231.931" gradientUnits="userSpaceOnUse"><stop offset="0" stop-color="#3dcfa4"></stop><stop offset="1" stop-color="#30bb93"></stop></linearGradient><path fill="url(#V)" d="M185.717 229.35v2.639c0 .4-.33.72-.72.72h-11.588c-.4 0-.73-.32-.73-.72v-2.639c0-.39.33-.72.73-.72h11.588c.39 0 .72.33.72.72z"></path><path fill="#fff" d="M79.464 240.941h111.581v23.924H79.464z"></path><linearGradient id="W" x1="86.782" x2="95.469" y1="252.635" y2="252.635" gradientUnits="userSpaceOnUse"><stop offset="0" stop-color="#f34b6d"></stop><stop offset="1" stop-color="#e24067"></stop></linearGradient><circle cx="91.126" cy="252.635" r="4.343" fill="url(#W)"></circle><linearGradient id="X" x1="99.291" x2="103.036" y1="252.636" y2="252.636" gradientUnits="userSpaceOnUse"><stop offset="0" stop-color="#d1deff"></stop><stop offset="1" stop-color="#b2c7ff"></stop></linearGradient><path fill="url(#X)" d="M103.036 252.635a1.872 1.872 0 1 1-3.744.003 1.872 1.872 0 0 1 3.744-.003z"></path><linearGradient id="Y" x1="104.829" x2="108.574" y1="252.636" y2="252.636" gradientUnits="userSpaceOnUse"><stop offset="0" stop-color="#ebf2ff"></stop><stop offset="1" stop-color="#e1e8ff"></stop></linearGradient><path fill="url(#Y)" d="M108.574 252.635a1.872 1.872 0 1 1-3.744.003 1.872 1.872 0 0 1 3.744-.003z"></path><linearGradient id="Z" x1="110.367" x2="114.112" y1="252.636" y2="252.636" gradientUnits="userSpaceOnUse"><stop offset="0" stop-color="#d1deff"></stop><stop offset="1" stop-color="#b2c7ff"></stop></linearGradient><path fill="url(#Z)" d="M114.112 252.635a1.872 1.872 0 1 1-3.744.003 1.872 1.872 0 0 1 3.744-.003z"></path><linearGradient id="aa" x1="115.905" x2="119.65" y1="252.636" y2="252.636" gradientUnits="userSpaceOnUse"><stop offset="0" stop-color="#ebf2ff"></stop><stop offset="1" stop-color="#e1e8ff"></stop></linearGradient><path fill="url(#aa)" d="M119.65 252.635a1.872 1.872 0 1 1-3.744.003 1.872 1.872 0 0 1 3.744-.003z"></path><linearGradient id="ab" x1="121.443" x2="125.188" y1="252.636" y2="252.636" gradientUnits="userSpaceOnUse"><stop offset="0" stop-color="#d1deff"></stop><stop offset="1" stop-color="#b2c7ff"></stop></linearGradient><path fill="url(#ab)" d="M125.188 252.635a1.872 1.872 0 1 1-3.745.003 1.872 1.872 0 0 1 3.745-.003z"></path><linearGradient id="ac" x1="126.981" x2="130.726" y1="252.636" y2="252.636" gradientUnits="userSpaceOnUse"><stop offset="0" stop-color="#d1deff"></stop><stop offset="1" stop-color="#b2c7ff"></stop></linearGradient><path fill="url(#ac)" d="M130.726 252.635a1.872 1.872 0 1 1-3.745.003 1.872 1.872 0 0 1 3.745-.003z"></path><linearGradient id="ad" x1="132.519" x2="136.264" y1="252.636" y2="252.636" gradientUnits="userSpaceOnUse"><stop offset="0" stop-color="#ebf2ff"></stop><stop offset="1" stop-color="#e1e8ff"></stop></linearGradient><path fill="url(#ad)" d="M136.264 252.635a1.872 1.872 0 1 1-3.745.003 1.872 1.872 0 0 1 3.745-.003z"></path><linearGradient id="ae" x1="138.057" x2="141.802" y1="252.636" y2="252.636" gradientUnits="userSpaceOnUse"><stop offset="0" stop-color="#d1deff"></stop><stop offset="1" stop-color="#b2c7ff"></stop></linearGradient><path fill="url(#ae)" d="M141.802 252.635a1.872 1.872 0 1 1-3.745.003 1.872 1.872 0 0 1 3.745-.003z"></path><linearGradient id="af" x1="148.712" x2="150.441" y1="252.901" y2="252.901" gradientUnits="userSpaceOnUse"><stop offset="0" stop-color="#d1deff"></stop><stop offset="1" stop-color="#b2c7ff"></stop></linearGradient><path fill="url(#af)" d="M148.712 240.939h1.729v23.924h-1.729z"></path><linearGradient id="ag" x1="156.553" x2="185.717" y1="249.743" y2="249.743" gradientUnits="userSpaceOnUse"><stop offset="0" stop-color="#909eff"></stop><stop offset="1" stop-color="#6977e3"></stop></linearGradient><path fill="url(#ag)" d="M185.717 245.659v8.168c0 .58-.47 1.04-1.04 1.04h-27.084c-.57 0-1.04-.46-1.04-1.04v-8.168c0-.58.47-1.04 1.04-1.04h27.084c.57 0 1.04.46 1.04 1.04z"></path><path fill="#fff" d="M161.849 253.332a.43.43 0 0 1-.337-.7c1.068-1.345 4.68-5.724 6.227-5.53.84.103 1.335.963 1.815 1.796.632 1.096 1.07 1.748 1.809 1.595.793-.165 1.767-1.189 2.709-2.179 1.21-1.272 2.34-2.48 3.514-2.381 1.95.157 3.901 2.176 3.983 2.262a.431.431 0 0 1-.623.596c-.017-.02-1.808-1.868-3.43-2-.774-.056-1.85 1.097-2.82 2.117-1.032 1.086-2.1 2.208-3.157 2.429-1.413.295-2.14-.983-2.731-2.009-.374-.649-.761-1.32-1.174-1.37-.706-.095-3.4 2.635-5.447 5.211a.43.43 0 0 1-.338.163z"></path><linearGradient id="ah" x1="157.852" x2="158.034" y1="259.589" y2="260.213" gradientUnits="userSpaceOnUse"><stop offset="0" stop-color="#fadf68"></stop><stop offset="1" stop-color="#eac250"></stop></linearGradient><path fill="url(#ah)" d="M159.205 259.025a1.518 1.518 0 1 1-3.033 0 1.518 1.518 0 0 1 3.033 0z"></path><linearGradient id="ai" x1="163.328" x2="163.302" y1="259.557" y2="259.921" gradientUnits="userSpaceOnUse"><stop offset="0" stop-color="#f34b6d"></stop><stop offset="1" stop-color="#e24067"></stop></linearGradient><path fill="url(#ai)" d="M164.883 259.025a1.518 1.518 0 1 1-3.033 0 1.518 1.518 0 0 1 3.033 0z"></path><linearGradient id="aj" x1="179.198" x2="179.198" y1="258.933" y2="260.107" gradientUnits="userSpaceOnUse"><stop offset="0" stop-color="#3dcfa4"></stop><stop offset="1" stop-color="#30bb93"></stop></linearGradient><path fill="url(#aj)" d="M185.717 257.526v2.64c0 .4-.33.72-.72.72h-11.588c-.4 0-.73-.32-.73-.72v-2.64c0-.39.33-.72.73-.72h11.588c.39 0 .72.33.72.72z"></path><path fill="#fff" d="M79.464 269.117h111.581v23.924H79.464z"></path><linearGradient id="ak" x1="86.782" x2="95.469" y1="280.811" y2="280.811" gradientUnits="userSpaceOnUse"><stop offset="0" stop-color="#f34b6d"></stop><stop offset="1" stop-color="#e24067"></stop></linearGradient><circle cx="91.126" cy="280.811" r="4.343" fill="url(#ak)"></circle><linearGradient id="al" x1="99.291" x2="103.036" y1="280.813" y2="280.813" gradientUnits="userSpaceOnUse"><stop offset="0" stop-color="#d1deff"></stop><stop offset="1" stop-color="#b2c7ff"></stop></linearGradient><path fill="url(#al)" d="M103.036 280.812a1.872 1.872 0 1 1-3.744.002 1.872 1.872 0 0 1 3.744-.002z"></path><linearGradient id="am" x1="104.829" x2="108.574" y1="280.813" y2="280.813" gradientUnits="userSpaceOnUse"><stop offset="0" stop-color="#ebf2ff"></stop><stop offset="1" stop-color="#e1e8ff"></stop></linearGradient><path fill="url(#am)" d="M108.574 280.812a1.872 1.872 0 1 1-3.744.002 1.872 1.872 0 0 1 3.744-.002z"></path><linearGradient id="an" x1="110.367" x2="114.112" y1="280.813" y2="280.813" gradientUnits="userSpaceOnUse"><stop offset="0" stop-color="#d1deff"></stop><stop offset="1" stop-color="#b2c7ff"></stop></linearGradient><path fill="url(#an)" d="M114.112 280.812a1.872 1.872 0 1 1-3.744.002 1.872 1.872 0 0 1 3.744-.002z"></path><linearGradient id="ao" x1="115.905" x2="119.65" y1="280.813" y2="280.813" gradientUnits="userSpaceOnUse"><stop offset="0" stop-color="#ebf2ff"></stop><stop offset="1" stop-color="#e1e8ff"></stop></linearGradient><path fill="url(#ao)" d="M119.65 280.812a1.872 1.872 0 1 1-3.744.002 1.872 1.872 0 0 1 3.744-.002z"></path><linearGradient id="ap" x1="121.443" x2="125.188" y1="280.813" y2="280.813" gradientUnits="userSpaceOnUse"><stop offset="0" stop-color="#d1deff"></stop><stop offset="1" stop-color="#b2c7ff"></stop></linearGradient><path fill="url(#ap)" d="M125.188 280.812a1.872 1.872 0 1 1-3.744.002 1.872 1.872 0 0 1 3.744-.002z"></path><linearGradient id="aq" x1="126.981" x2="130.726" y1="280.813" y2="280.813" gradientUnits="userSpaceOnUse"><stop offset="0" stop-color="#d1deff"></stop><stop offset="1" stop-color="#b2c7ff"></stop></linearGradient><path fill="url(#aq)" d="M130.726 280.812a1.872 1.872 0 1 1-3.745.002 1.872 1.872 0 0 1 3.745-.002z"></path><linearGradient id="ar" x1="132.519" x2="136.264" y1="280.813" y2="280.813" gradientUnits="userSpaceOnUse"><stop offset="0" stop-color="#ebf2ff"></stop><stop offset="1" stop-color="#e1e8ff"></stop></linearGradient><path fill="url(#ar)" d="M136.264 280.812a1.872 1.872 0 1 1-3.745.002 1.872 1.872 0 0 1 3.745-.002z"></path><linearGradient id="as" x1="138.057" x2="141.802" y1="280.813" y2="280.813" gradientUnits="userSpaceOnUse"><stop offset="0" stop-color="#d1deff"></stop><stop offset="1" stop-color="#b2c7ff"></stop></linearGradient><path fill="url(#as)" d="M141.802 280.812a1.872 1.872 0 1 1-3.745.002 1.872 1.872 0 0 1 3.745-.002z"></path><linearGradient id="at" x1="148.712" x2="150.441" y1="281.077" y2="281.077" gradientUnits="userSpaceOnUse"><stop offset="0" stop-color="#d1deff"></stop><stop offset="1" stop-color="#b2c7ff"></stop></linearGradient><path fill="url(#at)" d="M148.712 269.115h1.729v23.924h-1.729z"></path><linearGradient id="au" x1="156.553" x2="185.717" y1="277.919" y2="277.919" gradientUnits="userSpaceOnUse"><stop offset="0" stop-color="#909eff"></stop><stop offset="1" stop-color="#6977e3"></stop></linearGradient><path fill="url(#au)" d="M185.717 273.835v8.168c0 .58-.47 1.04-1.04 1.04h-27.084c-.57 0-1.04-.46-1.04-1.04v-8.168c0-.58.47-1.04 1.04-1.04h27.084c.57 0 1.04.46 1.04 1.04z"></path><path fill="#fff" d="M161.849 281.508a.431.431 0 0 1-.337-.699c1.068-1.345 4.68-5.725 6.227-5.53.84.102 1.335.963 1.815 1.795.632 1.097 1.07 1.749 1.809 1.596.793-.166 1.767-1.19 2.709-2.18 1.21-1.272 2.34-2.48 3.514-2.381 1.95.157 3.901 2.176 3.983 2.262a.431.431 0 0 1-.623.596c-.017-.019-1.808-1.868-3.43-2-.774-.055-1.85 1.097-2.82 2.118-1.032 1.085-2.1 2.208-3.157 2.428-1.413.295-2.14-.983-2.731-2.008-.374-.65-.761-1.32-1.174-1.371-.706-.095-3.4 2.635-5.447 5.211a.43.43 0 0 1-.338.163z"></path><linearGradient id="av" x1="157.852" x2="158.034" y1="287.766" y2="288.39" gradientUnits="userSpaceOnUse"><stop offset="0" stop-color="#fadf68"></stop><stop offset="1" stop-color="#eac250"></stop></linearGradient><path fill="url(#av)" d="M159.205 287.202a1.518 1.518 0 1 1-3.033 0 1.518 1.518 0 0 1 3.033 0z"></path><linearGradient id="aw" x1="163.328" x2="163.302" y1="287.733" y2="288.097" gradientUnits="userSpaceOnUse"><stop offset="0" stop-color="#f34b6d"></stop><stop offset="1" stop-color="#e24067"></stop></linearGradient><path fill="url(#aw)" d="M164.883 287.202a1.518 1.518 0 1 1-3.033 0 1.518 1.518 0 0 1 3.033 0z"></path><linearGradient id="ax" x1="179.198" x2="179.198" y1="287.109" y2="288.284" gradientUnits="userSpaceOnUse"><stop offset="0" stop-color="#3dcfa4"></stop><stop offset="1" stop-color="#30bb93"></stop></linearGradient><path fill="url(#ax)" d="M185.717 285.703v2.639c0 .4-.33.72-.72.72h-11.588c-.4 0-.73-.32-.73-.72v-2.64c0-.39.33-.72.73-.72h11.588c.39 0 .72.33.72.72z"></path><path fill="#fff" d="M79.464 297.294h111.581v23.924H79.464z"></path><linearGradient id="ay" x1="86.782" x2="95.469" y1="308.988" y2="308.988" gradientUnits="userSpaceOnUse"><stop offset="0" stop-color="#f34b6d"></stop><stop offset="1" stop-color="#e24067"></stop></linearGradient><circle cx="91.126" cy="308.988" r="4.343" fill="url(#ay)"></circle><linearGradient id="az" x1="99.291" x2="103.036" y1="308.989" y2="308.989" gradientUnits="userSpaceOnUse"><stop offset="0" stop-color="#d1deff"></stop><stop offset="1" stop-color="#b2c7ff"></stop></linearGradient><path fill="url(#az)" d="M103.036 308.988a1.872 1.872 0 1 1-3.744.002 1.872 1.872 0 0 1 3.744-.002z"></path><linearGradient id="aA" x1="104.829" x2="108.574" y1="308.989" y2="308.989" gradientUnits="userSpaceOnUse"><stop offset="0" stop-color="#ebf2ff"></stop><stop offset="1" stop-color="#e1e8ff"></stop></linearGradient><path fill="url(#aA)" d="M108.574 308.988a1.872 1.872 0 1 1-3.744.002 1.872 1.872 0 0 1 3.744-.002z"></path><linearGradient id="aB" x1="110.367" x2="114.112" y1="308.989" y2="308.989" gradientUnits="userSpaceOnUse"><stop offset="0" stop-color="#d1deff"></stop><stop offset="1" stop-color="#b2c7ff"></stop></linearGradient><path fill="url(#aB)" d="M114.112 308.988a1.872 1.872 0 1 1-3.744.002 1.872 1.872 0 0 1 3.744-.002z"></path><linearGradient id="aC" x1="115.905" x2="119.65" y1="308.989" y2="308.989" gradientUnits="userSpaceOnUse"><stop offset="0" stop-color="#ebf2ff"></stop><stop offset="1" stop-color="#e1e8ff"></stop></linearGradient><path fill="url(#aC)" d="M119.65 308.988a1.872 1.872 0 1 1-3.744.002 1.872 1.872 0 0 1 3.744-.002z"></path><linearGradient id="aD" x1="121.443" x2="125.188" y1="308.989" y2="308.989" gradientUnits="userSpaceOnUse"><stop offset="0" stop-color="#d1deff"></stop><stop offset="1" stop-color="#b2c7ff"></stop></linearGradient><path fill="url(#aD)" d="M125.188 308.988a1.872 1.872 0 1 1-3.744.002 1.872 1.872 0 0 1 3.744-.002z"></path><linearGradient id="aE" x1="126.981" x2="130.726" y1="308.989" y2="308.989" gradientUnits="userSpaceOnUse"><stop offset="0" stop-color="#d1deff"></stop><stop offset="1" stop-color="#b2c7ff"></stop></linearGradient><path fill="url(#aE)" d="M130.726 308.988a1.872 1.872 0 1 1-3.745.002 1.872 1.872 0 0 1 3.745-.002z"></path><linearGradient id="aF" x1="132.519" x2="136.264" y1="308.989" y2="308.989" gradientUnits="userSpaceOnUse"><stop offset="0" stop-color="#ebf2ff"></stop><stop offset="1" stop-color="#e1e8ff"></stop></linearGradient><path fill="url(#aF)" d="M136.264 308.988a1.872 1.872 0 1 1-3.745.002 1.872 1.872 0 0 1 3.745-.002z"></path><linearGradient id="aG" x1="138.057" x2="141.802" y1="308.989" y2="308.989" gradientUnits="userSpaceOnUse"><stop offset="0" stop-color="#d1deff"></stop><stop offset="1" stop-color="#b2c7ff"></stop></linearGradient><path fill="url(#aG)" d="M141.802 308.988a1.872 1.872 0 1 1-3.745.002 1.872 1.872 0 0 1 3.745-.002z"></path><linearGradient id="aH" x1="148.712" x2="150.441" y1="309.254" y2="309.254" gradientUnits="userSpaceOnUse"><stop offset="0" stop-color="#d1deff"></stop><stop offset="1" stop-color="#b2c7ff"></stop></linearGradient><path fill="url(#aH)" d="M148.712 297.292h1.729v23.924h-1.729z"></path><linearGradient id="aI" x1="156.553" x2="185.717" y1="306.096" y2="306.096" gradientUnits="userSpaceOnUse"><stop offset="0" stop-color="#909eff"></stop><stop offset="1" stop-color="#6977e3"></stop></linearGradient><path fill="url(#aI)" d="M185.717 302.012v8.168c0 .58-.47 1.04-1.04 1.04h-27.084c-.57 0-1.04-.46-1.04-1.04v-8.168c0-.58.47-1.04 1.04-1.04h27.084c.57 0 1.04.46 1.04 1.04z"></path><path fill="#fff" d="M161.849 309.685a.431.431 0 0 1-.337-.7c1.068-1.345 4.68-5.724 6.227-5.53.84.103 1.335.963 1.815 1.796.632 1.096 1.07 1.748 1.809 1.595.793-.166 1.767-1.189 2.709-2.179 1.21-1.272 2.34-2.48 3.514-2.382 1.95.158 3.901 2.177 3.983 2.263a.431.431 0 0 1-.623.595c-.017-.018-1.808-1.868-3.43-1.999-.774-.056-1.85 1.097-2.82 2.117-1.032 1.086-2.1 2.208-3.157 2.429-1.413.295-2.14-.983-2.731-2.009-.374-.65-.761-1.32-1.174-1.37-.706-.096-3.4 2.635-5.447 5.21a.43.43 0 0 1-.338.164z"></path><linearGradient id="aJ" x1="157.852" x2="158.034" y1="315.942" y2="316.566" gradientUnits="userSpaceOnUse"><stop offset="0" stop-color="#fadf68"></stop><stop offset="1" stop-color="#eac250"></stop></linearGradient><path fill="url(#aJ)" d="M159.205 315.378a1.518 1.518 0 1 1-3.033 0 1.518 1.518 0 0 1 3.033 0z"></path><linearGradient id="aK" x1="163.328" x2="163.302" y1="315.91" y2="316.274" gradientUnits="userSpaceOnUse"><stop offset="0" stop-color="#f34b6d"></stop><stop offset="1" stop-color="#e24067"></stop></linearGradient><path fill="url(#aK)" d="M164.883 315.378a1.518 1.518 0 1 1-3.033 0 1.518 1.518 0 0 1 3.033 0z"></path><linearGradient id="aL" x1="179.198" x2="179.198" y1="315.286" y2="316.46" gradientUnits="userSpaceOnUse"><stop offset="0" stop-color="#3dcfa4"></stop><stop offset="1" stop-color="#30bb93"></stop></linearGradient><path fill="url(#aL)" d="M185.717 313.88v2.638c0 .4-.33.72-.72.72h-11.588c-.4 0-.73-.32-.73-.72v-2.639c0-.39.33-.72.73-.72h11.588c.39 0 .72.33.72.72z"></path><path fill="#fff" d="M79.464 325.47h111.581v23.924H79.464z"></path><linearGradient id="aM" x1="86.782" x2="95.469" y1="337.164" y2="337.164" gradientUnits="userSpaceOnUse"><stop offset="0" stop-color="#f34b6d"></stop><stop offset="1" stop-color="#e24067"></stop></linearGradient><circle cx="91.126" cy="337.164" r="4.343" fill="url(#aM)"></circle><linearGradient id="aN" x1="99.291" x2="103.036" y1="337.165" y2="337.165" gradientUnits="userSpaceOnUse"><stop offset="0" stop-color="#d1deff"></stop><stop offset="1" stop-color="#b2c7ff"></stop></linearGradient><path fill="url(#aN)" d="M103.036 337.164a1.872 1.872 0 1 1-3.744.003 1.872 1.872 0 0 1 3.744-.003z"></path><linearGradient id="aO" x1="104.829" x2="108.574" y1="337.165" y2="337.165" gradientUnits="userSpaceOnUse"><stop offset="0" stop-color="#ebf2ff"></stop><stop offset="1" stop-color="#e1e8ff"></stop></linearGradient><path fill="url(#aO)" d="M108.574 337.164a1.872 1.872 0 1 1-3.744.003 1.872 1.872 0 0 1 3.744-.003z"></path><linearGradient id="aP" x1="110.367" x2="114.112" y1="337.165" y2="337.165" gradientUnits="userSpaceOnUse"><stop offset="0" stop-color="#d1deff"></stop><stop offset="1" stop-color="#b2c7ff"></stop></linearGradient><path fill="url(#aP)" d="M114.112 337.164a1.872 1.872 0 1 1-3.744.003 1.872 1.872 0 0 1 3.744-.003z"></path><linearGradient id="aQ" x1="115.905" x2="119.65" y1="337.165" y2="337.165" gradientUnits="userSpaceOnUse"><stop offset="0" stop-color="#ebf2ff"></stop><stop offset="1" stop-color="#e1e8ff"></stop></linearGradient><path fill="url(#aQ)" d="M119.65 337.164a1.872 1.872 0 1 1-3.744.003 1.872 1.872 0 0 1 3.744-.003z"></path><linearGradient id="aR" x1="121.443" x2="125.188" y1="337.165" y2="337.165" gradientUnits="userSpaceOnUse"><stop offset="0" stop-color="#d1deff"></stop><stop offset="1" stop-color="#b2c7ff"></stop></linearGradient><path fill="url(#aR)" d="M125.188 337.164a1.872 1.872 0 1 1-3.744.003 1.872 1.872 0 0 1 3.744-.003z"></path><linearGradient id="aS" x1="126.981" x2="130.726" y1="337.165" y2="337.165" gradientUnits="userSpaceOnUse"><stop offset="0" stop-color="#d1deff"></stop><stop offset="1" stop-color="#b2c7ff"></stop></linearGradient><path fill="url(#aS)" d="M130.726 337.164a1.872 1.872 0 1 1-3.745.003 1.872 1.872 0 0 1 3.745-.003z"></path><linearGradient id="aT" x1="132.519" x2="136.264" y1="337.165" y2="337.165" gradientUnits="userSpaceOnUse"><stop offset="0" stop-color="#ebf2ff"></stop><stop offset="1" stop-color="#e1e8ff"></stop></linearGradient><path fill="url(#aT)" d="M136.264 337.164a1.872 1.872 0 1 1-3.745.003 1.872 1.872 0 0 1 3.745-.003z"></path><linearGradient id="aU" x1="138.057" x2="141.802" y1="337.165" y2="337.165" gradientUnits="userSpaceOnUse"><stop offset="0" stop-color="#d1deff"></stop><stop offset="1" stop-color="#b2c7ff"></stop></linearGradient><path fill="url(#aU)" d="M141.802 337.164a1.872 1.872 0 1 1-3.745.003 1.872 1.872 0 0 1 3.745-.003z"></path><linearGradient id="aV" x1="148.712" x2="150.441" y1="337.43" y2="337.43" gradientUnits="userSpaceOnUse"><stop offset="0" stop-color="#d1deff"></stop><stop offset="1" stop-color="#b2c7ff"></stop></linearGradient><path fill="url(#aV)" d="M148.712 325.468h1.729v23.924h-1.729z"></path><linearGradient id="aW" x1="156.553" x2="185.717" y1="334.272" y2="334.272" gradientUnits="userSpaceOnUse"><stop offset="0" stop-color="#909eff"></stop><stop offset="1" stop-color="#6977e3"></stop></linearGradient><path fill="url(#aW)" d="M185.717 330.188v8.168c0 .58-.47 1.04-1.04 1.04h-27.084c-.57 0-1.04-.46-1.04-1.04v-8.168c0-.58.47-1.04 1.04-1.04h27.084c.57 0 1.04.46 1.04 1.04z"></path><path fill="#fff" d="M161.849 337.861a.43.43 0 0 1-.337-.699c1.068-1.345 4.68-5.725 6.227-5.53.84.102 1.335.963 1.815 1.795.632 1.097 1.07 1.749 1.809 1.595.793-.165 1.767-1.189 2.709-2.178 1.21-1.273 2.34-2.48 3.514-2.382 1.95.157 3.901 2.176 3.983 2.262a.431.431 0 0 1-.623.596c-.017-.019-1.808-1.868-3.43-2-.774-.055-1.85 1.097-2.82 2.118-1.032 1.085-2.1 2.207-3.157 2.428-1.413.295-2.14-.983-2.731-2.008-.374-.65-.761-1.32-1.174-1.371-.706-.095-3.4 2.635-5.447 5.211a.43.43 0 0 1-.338.163z"></path><linearGradient id="aX" x1="157.852" x2="158.034" y1="344.119" y2="344.743" gradientUnits="userSpaceOnUse"><stop offset="0" stop-color="#fadf68"></stop><stop offset="1" stop-color="#eac250"></stop></linearGradient><path fill="url(#aX)" d="M159.205 343.555a1.518 1.518 0 1 1-3.033 0 1.518 1.518 0 0 1 3.033 0z"></path><linearGradient id="aY" x1="163.328" x2="163.302" y1="344.086" y2="344.45" gradientUnits="userSpaceOnUse"><stop offset="0" stop-color="#f34b6d"></stop><stop offset="1" stop-color="#e24067"></stop></linearGradient><path fill="url(#aY)" d="M164.883 343.555a1.518 1.518 0 1 1-3.033 0 1.518 1.518 0 0 1 3.033 0z"></path><linearGradient id="aZ" x1="179.198" x2="179.198" y1="343.462" y2="344.637" gradientUnits="userSpaceOnUse"><stop offset="0" stop-color="#3dcfa4"></stop><stop offset="1" stop-color="#30bb93"></stop></linearGradient><path fill="url(#aZ)" d="M185.717 342.056v2.639c0 .4-.33.72-.72.72h-11.588c-.4 0-.73-.32-.73-.72v-2.64c0-.39.33-.72.73-.72h11.588c.39 0 .72.33.72.72z"></path><path fill="#fff" d="M79.464 353.647h111.581v23.924H79.464z"></path><linearGradient id="ba" x1="86.782" x2="95.469" y1="365.341" y2="365.341" gradientUnits="userSpaceOnUse"><stop offset="0" stop-color="#f34b6d"></stop><stop offset="1" stop-color="#e24067"></stop></linearGradient><circle cx="91.126" cy="365.341" r="4.343" fill="url(#ba)"></circle><linearGradient id="bb" x1="99.291" x2="103.036" y1="365.342" y2="365.342" gradientUnits="userSpaceOnUse"><stop offset="0" stop-color="#d1deff"></stop><stop offset="1" stop-color="#b2c7ff"></stop></linearGradient><path fill="url(#bb)" d="M103.036 365.34a1.872 1.872 0 1 1-3.744.003 1.872 1.872 0 0 1 3.744-.002z"></path><linearGradient id="bc" x1="104.829" x2="108.574" y1="365.342" y2="365.342" gradientUnits="userSpaceOnUse"><stop offset="0" stop-color="#ebf2ff"></stop><stop offset="1" stop-color="#e1e8ff"></stop></linearGradient><path fill="url(#bc)" d="M108.574 365.34a1.872 1.872 0 1 1-3.744.003 1.872 1.872 0 0 1 3.744-.002z"></path><linearGradient id="bd" x1="110.367" x2="114.112" y1="365.342" y2="365.342" gradientUnits="userSpaceOnUse"><stop offset="0" stop-color="#d1deff"></stop><stop offset="1" stop-color="#b2c7ff"></stop></linearGradient><path fill="url(#bd)" d="M114.112 365.34a1.872 1.872 0 1 1-3.744.003 1.872 1.872 0 0 1 3.744-.002z"></path><linearGradient id="be" x1="115.905" x2="119.65" y1="365.342" y2="365.342" gradientUnits="userSpaceOnUse"><stop offset="0" stop-color="#ebf2ff"></stop><stop offset="1" stop-color="#e1e8ff"></stop></linearGradient><path fill="url(#be)" d="M119.65 365.34a1.872 1.872 0 1 1-3.745.003 1.872 1.872 0 0 1 3.745-.002z"></path><linearGradient id="bf" x1="121.443" x2="125.188" y1="365.342" y2="365.342" gradientUnits="userSpaceOnUse"><stop offset="0" stop-color="#d1deff"></stop><stop offset="1" stop-color="#b2c7ff"></stop></linearGradient><path fill="url(#bf)" d="M125.188 365.34a1.872 1.872 0 1 1-3.745.003 1.872 1.872 0 0 1 3.745-.002z"></path><linearGradient id="bg" x1="126.981" x2="130.726" y1="365.342" y2="365.342" gradientUnits="userSpaceOnUse"><stop offset="0" stop-color="#d1deff"></stop><stop offset="1" stop-color="#b2c7ff"></stop></linearGradient><path fill="url(#bg)" d="M130.726 365.34a1.872 1.872 0 1 1-3.745.003 1.872 1.872 0 0 1 3.745-.002z"></path><linearGradient id="bh" x1="132.519" x2="136.264" y1="365.342" y2="365.342" gradientUnits="userSpaceOnUse"><stop offset="0" stop-color="#ebf2ff"></stop><stop offset="1" stop-color="#e1e8ff"></stop></linearGradient><path fill="url(#bh)" d="M136.264 365.34a1.872 1.872 0 1 1-3.745.003 1.872 1.872 0 0 1 3.745-.002z"></path><linearGradient id="bi" x1="138.057" x2="141.802" y1="365.342" y2="365.342" gradientUnits="userSpaceOnUse"><stop offset="0" stop-color="#d1deff"></stop><stop offset="1" stop-color="#b2c7ff"></stop></linearGradient><path fill="url(#bi)" d="M141.802 365.34a1.872 1.872 0 1 1-3.745.003 1.872 1.872 0 0 1 3.745-.002z"></path><linearGradient id="bj" x1="148.712" x2="150.441" y1="365.607" y2="365.607" gradientUnits="userSpaceOnUse"><stop offset="0" stop-color="#d1deff"></stop><stop offset="1" stop-color="#b2c7ff"></stop></linearGradient><path fill="url(#bj)" d="M148.712 353.645h1.729v23.924h-1.729z"></path><linearGradient id="bk" x1="156.553" x2="185.717" y1="362.449" y2="362.449" gradientUnits="userSpaceOnUse"><stop offset="0" stop-color="#909eff"></stop><stop offset="1" stop-color="#6977e3"></stop></linearGradient><path fill="url(#bk)" d="M185.717 358.365v8.168c0 .58-.47 1.04-1.04 1.04h-27.084c-.57 0-1.04-.46-1.04-1.04v-8.168c0-.58.47-1.04 1.04-1.04h27.084c.57 0 1.04.46 1.04 1.04z"></path><path fill="#fff" d="M161.849 366.038a.431.431 0 0 1-.337-.7c1.068-1.345 4.68-5.724 6.227-5.53.84.102 1.335.963 1.815 1.796.632 1.096 1.07 1.748 1.809 1.595.793-.166 1.767-1.19 2.709-2.179 1.21-1.272 2.34-2.48 3.514-2.382 1.95.158 3.901 2.177 3.983 2.263a.431.431 0 0 1-.623.595c-.017-.018-1.808-1.868-3.43-1.999-.774-.056-1.85 1.096-2.82 2.117-1.032 1.086-2.1 2.208-3.157 2.429-1.413.295-2.14-.983-2.731-2.009-.374-.65-.761-1.32-1.174-1.371-.706-.095-3.4 2.636-5.447 5.212a.43.43 0 0 1-.338.163z"></path><linearGradient id="bl" x1="157.852" x2="158.034" y1="372.295" y2="372.919" gradientUnits="userSpaceOnUse"><stop offset="0" stop-color="#fadf68"></stop><stop offset="1" stop-color="#eac250"></stop></linearGradient><path fill="url(#bl)" d="M159.205 371.731a1.518 1.518 0 1 1-3.033 0 1.518 1.518 0 0 1 3.033 0z"></path><linearGradient id="bm" x1="163.328" x2="163.302" y1="372.263" y2="372.627" gradientUnits="userSpaceOnUse"><stop offset="0" stop-color="#f34b6d"></stop><stop offset="1" stop-color="#e24067"></stop></linearGradient><path fill="url(#bm)" d="M164.883 371.731a1.518 1.518 0 1 1-3.033 0 1.518 1.518 0 0 1 3.033 0z"></path><linearGradient id="bn" x1="179.198" x2="179.198" y1="371.639" y2="372.813" gradientUnits="userSpaceOnUse"><stop offset="0" stop-color="#3dcfa4"></stop><stop offset="1" stop-color="#30bb93"></stop></linearGradient><path fill="url(#bn)" d="M185.717 370.232v2.64c0 .4-.33.72-.72.72h-11.588c-.4 0-.73-.32-.73-.72v-2.64c0-.39.33-.72.73-.72h11.588c.39 0 .72.33.72.72z"></path><path fill="#fff" d="M79.464 381.823h111.581v23.924H79.464zM79.464 416.565h111.581v30.082H79.464z"></path><linearGradient id="bo" x1="86.782" x2="95.469" y1="393.517" y2="393.517" gradientUnits="userSpaceOnUse"><stop offset="0" stop-color="#f34b6d"></stop><stop offset="1" stop-color="#e24067"></stop></linearGradient><circle cx="91.126" cy="393.517" r="4.343" fill="url(#bo)"></circle><linearGradient id="bp" x1="99.291" x2="103.036" y1="393.518" y2="393.518" gradientUnits="userSpaceOnUse"><stop offset="0" stop-color="#d1deff"></stop><stop offset="1" stop-color="#b2c7ff"></stop></linearGradient><path fill="url(#bp)" d="M103.036 393.517a1.872 1.872 0 1 1-3.744.003 1.872 1.872 0 0 1 3.744-.003z"></path><linearGradient id="bq" x1="104.829" x2="108.574" y1="393.518" y2="393.518" gradientUnits="userSpaceOnUse"><stop offset="0" stop-color="#ebf2ff"></stop><stop offset="1" stop-color="#e1e8ff"></stop></linearGradient><path fill="url(#bq)" d="M108.574 393.517a1.872 1.872 0 1 1-3.744.003 1.872 1.872 0 0 1 3.744-.003z"></path><linearGradient id="br" x1="110.367" x2="114.112" y1="393.518" y2="393.518" gradientUnits="userSpaceOnUse"><stop offset="0" stop-color="#d1deff"></stop><stop offset="1" stop-color="#b2c7ff"></stop></linearGradient><path fill="url(#br)" d="M114.112 393.517a1.872 1.872 0 1 1-3.744.003 1.872 1.872 0 0 1 3.744-.003z"></path><linearGradient id="bs" x1="115.905" x2="119.65" y1="393.518" y2="393.518" gradientUnits="userSpaceOnUse"><stop offset="0" stop-color="#ebf2ff"></stop><stop offset="1" stop-color="#e1e8ff"></stop></linearGradient><path fill="url(#bs)" d="M119.65 393.517a1.872 1.872 0 1 1-3.744.003 1.872 1.872 0 0 1 3.744-.003z"></path><linearGradient id="bt" x1="121.443" x2="125.188" y1="393.518" y2="393.518" gradientUnits="userSpaceOnUse"><stop offset="0" stop-color="#d1deff"></stop><stop offset="1" stop-color="#b2c7ff"></stop></linearGradient><path fill="url(#bt)" d="M125.188 393.517a1.872 1.872 0 1 1-3.744.003 1.872 1.872 0 0 1 3.744-.003z"></path><linearGradient id="bu" x1="126.981" x2="130.726" y1="393.518" y2="393.518" gradientUnits="userSpaceOnUse"><stop offset="0" stop-color="#d1deff"></stop><stop offset="1" stop-color="#b2c7ff"></stop></linearGradient><path fill="url(#bu)" d="M130.726 393.517a1.872 1.872 0 1 1-3.745.003 1.872 1.872 0 0 1 3.745-.003z"></path><linearGradient id="bv" x1="132.519" x2="136.264" y1="393.518" y2="393.518" gradientUnits="userSpaceOnUse"><stop offset="0" stop-color="#ebf2ff"></stop><stop offset="1" stop-color="#e1e8ff"></stop></linearGradient><path fill="url(#bv)" d="M136.264 393.517a1.872 1.872 0 1 1-3.745.003 1.872 1.872 0 0 1 3.745-.003z"></path><linearGradient id="bw" x1="138.057" x2="141.802" y1="393.518" y2="393.518" gradientUnits="userSpaceOnUse"><stop offset="0" stop-color="#d1deff"></stop><stop offset="1" stop-color="#b2c7ff"></stop></linearGradient><path fill="url(#bw)" d="M141.802 393.517a1.872 1.872 0 1 1-3.745.003 1.872 1.872 0 0 1 3.745-.003z"></path><linearGradient id="bx" x1="148.712" x2="150.441" y1="393.783" y2="393.783" gradientUnits="userSpaceOnUse"><stop offset="0" stop-color="#d1deff"></stop><stop offset="1" stop-color="#b2c7ff"></stop></linearGradient><path fill="url(#bx)" d="M148.712 381.821h1.729v23.924h-1.729z"></path><linearGradient id="by" x1="156.553" x2="185.717" y1="390.625" y2="390.625" gradientUnits="userSpaceOnUse"><stop offset="0" stop-color="#909eff"></stop><stop offset="1" stop-color="#6977e3"></stop></linearGradient><path fill="url(#by)" d="M185.717 386.541v8.168c0 .58-.47 1.04-1.04 1.04h-27.084c-.57 0-1.04-.46-1.04-1.04v-8.168c0-.58.47-1.04 1.04-1.04h27.084c.57 0 1.04.46 1.04 1.04z"></path><path fill="#fff" d="M161.849 394.214a.431.431 0 0 1-.337-.699c1.068-1.345 4.68-5.725 6.227-5.531.84.103 1.335.964 1.815 1.796.632 1.096 1.07 1.748 1.809 1.595.793-.165 1.767-1.189 2.709-2.178 1.21-1.273 2.34-2.48 3.514-2.382 1.95.157 3.901 2.176 3.983 2.262a.431.431 0 0 1-.623.596c-.017-.02-1.808-1.868-3.43-2-.774-.056-1.85 1.097-2.82 2.117-1.032 1.086-2.1 2.208-3.157 2.429-1.413.295-2.14-.983-2.731-2.009-.374-.649-.761-1.32-1.174-1.37-.706-.095-3.4 2.635-5.447 5.211a.43.43 0 0 1-.338.163z"></path><linearGradient id="bz" x1="157.852" x2="158.034" y1="400.472" y2="401.096" gradientUnits="userSpaceOnUse"><stop offset="0" stop-color="#fadf68"></stop><stop offset="1" stop-color="#eac250"></stop></linearGradient><path fill="url(#bz)" d="M159.205 399.907a1.518 1.518 0 1 1-3.033 0 1.518 1.518 0 0 1 3.033 0z"></path><linearGradient id="bA" x1="163.328" x2="163.302" y1="400.439" y2="400.803" gradientUnits="userSpaceOnUse"><stop offset="0" stop-color="#f34b6d"></stop><stop offset="1" stop-color="#e24067"></stop></linearGradient><path fill="url(#bA)" d="M164.883 399.907a1.518 1.518 0 1 1-3.033 0 1.518 1.518 0 0 1 3.033 0z"></path><linearGradient id="bB" x1="179.198" x2="179.198" y1="399.815" y2="400.99" gradientUnits="userSpaceOnUse"><stop offset="0" stop-color="#3dcfa4"></stop><stop offset="1" stop-color="#30bb93"></stop></linearGradient><path fill="url(#bB)" d="M185.717 398.409v2.639c0 .4-.33.72-.72.72h-11.588c-.4 0-.73-.32-.73-.72v-2.64c0-.39.33-.72.73-.72h11.588c.39 0 .72.33.72.72z"></path><linearGradient id="bC" x1="91.223" x2="98.722" y1="426.094" y2="426.094" gradientUnits="userSpaceOnUse"><stop offset="0" stop-color="#d1deff"></stop><stop offset="1" stop-color="#b2c7ff"></stop></linearGradient><path fill="url(#bC)" d="M98.722 426.089a3.75 3.75 0 0 1-3.75 3.75 3.75 3.75 0 0 1-3.749-3.75c0-2.07 1.68-3.74 3.75-3.74 2.069 0 3.749 1.67 3.749 3.74z"></path><linearGradient id="bD" x1="91.223" x2="98.722" y1="437.118" y2="437.118" gradientUnits="userSpaceOnUse"><stop offset="0" stop-color="#d1deff"></stop><stop offset="1" stop-color="#b2c7ff"></stop></linearGradient><path fill="url(#bD)" d="M98.722 437.113a3.75 3.75 0 0 1-3.75 3.749 3.75 3.75 0 0 1-3.749-3.75c0-2.07 1.68-3.739 3.75-3.739 2.069 0 3.749 1.67 3.749 3.74z"></path><linearGradient id="bE" x1="102.732" x2="110.231" y1="426.094" y2="426.094" gradientUnits="userSpaceOnUse"><stop offset="0" stop-color="#d1deff"></stop><stop offset="1" stop-color="#b2c7ff"></stop></linearGradient><path fill="url(#bE)" d="M110.23 426.089a3.75 3.75 0 0 1-3.748 3.75 3.75 3.75 0 0 1-3.75-3.75c0-2.07 1.68-3.74 3.75-3.74 2.069 0 3.749 1.67 3.749 3.74z"></path><linearGradient id="bF" x1="102.732" x2="110.231" y1="437.118" y2="437.118" gradientUnits="userSpaceOnUse"><stop offset="0" stop-color="#d1deff"></stop><stop offset="1" stop-color="#b2c7ff"></stop></linearGradient><path fill="url(#bF)" d="M110.23 437.113a3.75 3.75 0 0 1-3.748 3.749 3.75 3.75 0 0 1-3.75-3.75c0-2.07 1.68-3.739 3.75-3.739 2.069 0 3.749 1.67 3.749 3.74z"></path><linearGradient id="bG" x1="114.241" x2="121.74" y1="426.094" y2="426.094" gradientUnits="userSpaceOnUse"><stop offset="0" stop-color="#d1deff"></stop><stop offset="1" stop-color="#b2c7ff"></stop></linearGradient><path fill="url(#bG)" d="M121.74 426.089a3.75 3.75 0 0 1-3.75 3.75 3.75 3.75 0 0 1-3.749-3.75c0-2.07 1.68-3.74 3.75-3.74 2.07 0 3.749 1.67 3.749 3.74z"></path><linearGradient id="bH" x1="114.241" x2="121.74" y1="437.118" y2="437.118" gradientUnits="userSpaceOnUse"><stop offset="0" stop-color="#d1deff"></stop><stop offset="1" stop-color="#b2c7ff"></stop></linearGradient><path fill="url(#bH)" d="M121.74 437.113a3.75 3.75 0 0 1-3.75 3.749 3.75 3.75 0 0 1-3.749-3.75c0-2.07 1.68-3.739 3.75-3.739 2.07 0 3.749 1.67 3.749 3.74z"></path><linearGradient id="bI" x1="125.751" x2="133.249" y1="426.094" y2="426.094" gradientUnits="userSpaceOnUse"><stop offset="0" stop-color="#d1deff"></stop><stop offset="1" stop-color="#b2c7ff"></stop></linearGradient><path fill="url(#bI)" d="M133.249 426.089a3.75 3.75 0 0 1-3.75 3.75 3.75 3.75 0 0 1-3.748-3.75c0-2.07 1.68-3.74 3.749-3.74 2.07 0 3.749 1.67 3.749 3.74z"></path><linearGradient id="bJ" x1="125.751" x2="133.249" y1="437.118" y2="437.118" gradientUnits="userSpaceOnUse"><stop offset="0" stop-color="#d1deff"></stop><stop offset="1" stop-color="#b2c7ff"></stop></linearGradient><path fill="url(#bJ)" d="M133.249 437.113a3.75 3.75 0 0 1-3.75 3.749 3.75 3.75 0 0 1-3.748-3.75c0-2.07 1.68-3.739 3.749-3.739 2.07 0 3.749 1.67 3.749 3.74z"></path><linearGradient id="bK" x1="137.26" x2="144.758" y1="426.094" y2="426.094" gradientUnits="userSpaceOnUse"><stop offset="0" stop-color="#d1deff"></stop><stop offset="1" stop-color="#b2c7ff"></stop></linearGradient><path fill="url(#bK)" d="M144.758 426.089a3.75 3.75 0 0 1-3.75 3.75 3.75 3.75 0 0 1-3.748-3.75c0-2.07 1.68-3.74 3.749-3.74 2.07 0 3.749 1.67 3.749 3.74z"></path><linearGradient id="bL" x1="137.26" x2="144.758" y1="437.118" y2="437.118" gradientUnits="userSpaceOnUse"><stop offset="0" stop-color="#d1deff"></stop><stop offset="1" stop-color="#b2c7ff"></stop></linearGradient><path fill="url(#bL)" d="M144.758 437.113a3.75 3.75 0 0 1-3.75 3.749 3.75 3.75 0 0 1-3.748-3.75c0-2.07 1.68-3.739 3.749-3.739 2.07 0 3.749 1.67 3.749 3.74z"></path><linearGradient id="bM" x1="148.769" x2="156.267" y1="426.094" y2="426.094" gradientUnits="userSpaceOnUse"><stop offset="0" stop-color="#d1deff"></stop><stop offset="1" stop-color="#b2c7ff"></stop></linearGradient><path fill="url(#bM)" d="M156.267 426.089a3.75 3.75 0 0 1-3.75 3.75 3.75 3.75 0 0 1-3.748-3.75c0-2.07 1.68-3.74 3.749-3.74 2.07 0 3.749 1.67 3.749 3.74z"></path><linearGradient id="bN" x1="148.769" x2="156.267" y1="437.118" y2="437.118" gradientUnits="userSpaceOnUse"><stop offset="0" stop-color="#d1deff"></stop><stop offset="1" stop-color="#b2c7ff"></stop></linearGradient><path fill="url(#bN)" d="M156.267 437.113a3.75 3.75 0 0 1-3.75 3.749 3.75 3.75 0 0 1-3.748-3.75c0-2.07 1.68-3.739 3.749-3.739 2.07 0 3.749 1.67 3.749 3.74z"></path><linearGradient id="bO" x1="160.278" x2="167.776" y1="426.094" y2="426.094" gradientUnits="userSpaceOnUse"><stop offset="0" stop-color="#d1deff"></stop><stop offset="1" stop-color="#b2c7ff"></stop></linearGradient><path fill="url(#bO)" d="M167.776 426.089a3.75 3.75 0 0 1-3.749 3.75 3.75 3.75 0 0 1-3.75-3.75c0-2.07 1.68-3.74 3.75-3.74 2.07 0 3.75 1.67 3.75 3.74z"></path><linearGradient id="bP" x1="160.278" x2="167.776" y1="437.118" y2="437.118" gradientUnits="userSpaceOnUse"><stop offset="0" stop-color="#d1deff"></stop><stop offset="1" stop-color="#b2c7ff"></stop></linearGradient><path fill="url(#bP)" d="M167.776 437.113a3.75 3.75 0 0 1-3.749 3.749 3.75 3.75 0 0 1-3.75-3.75c0-2.07 1.68-3.739 3.75-3.739 2.07 0 3.75 1.67 3.75 3.74z"></path><linearGradient id="bQ" x1="171.787" x2="179.285" y1="426.094" y2="426.094" gradientUnits="userSpaceOnUse"><stop offset="0" stop-color="#d1deff"></stop><stop offset="1" stop-color="#b2c7ff"></stop></linearGradient><path fill="url(#bQ)" d="M179.285 426.089a3.75 3.75 0 0 1-3.749 3.75 3.75 3.75 0 0 1-3.75-3.75c0-2.07 1.68-3.74 3.75-3.74 2.07 0 3.75 1.67 3.75 3.74z"></path><linearGradient id="bR" x1="171.787" x2="179.285" y1="437.118" y2="437.118" gradientUnits="userSpaceOnUse"><stop offset="0" stop-color="#d1deff"></stop><stop offset="1" stop-color="#b2c7ff"></stop></linearGradient><path fill="url(#bR)" d="M179.285 437.113a3.75 3.75 0 0 1-3.749 3.749 3.75 3.75 0 0 1-3.75-3.75c0-2.07 1.68-3.739 3.75-3.739 2.07 0 3.75 1.67 3.75 3.74z"></path><path fill="#fff" d="m246.943 154.361-55.898 156.075v-64.345l32.543-90.87zM265.54 153.681v13.097l-74.495 208.005V342.62l67.566-188.689zM207.812 155.8l-16.767 46.8v-26.714l7.069-19.735zM265.54 192.133v8.208l-74.495 208.004v-8.208zM265.54 278.714v26.714l-51.83 144.728-9.067-1.4z" opacity=".15"></path><linearGradient id="bS" x1="283.353" x2="415.924" y1="126.681" y2="126.681" gradientUnits="userSpaceOnUse"><stop offset="0" stop-color="#909eff"></stop><stop offset="1" stop-color="#6977e3"></stop></linearGradient><path fill="url(#bS)" d="M415.924 140.482c0 14.224-11.529 25.752-25.744 25.752h-85.243c-11.92 0-21.584-9.663-21.584-21.583 0-11.92 9.663-21.584 21.584-21.584h.028c.597-11.38 10.018-20.445 21.556-20.445 2.135 0 4.197.308 6.137.895 5.867-9.812 16.603-16.388 28.878-16.388 16.658 0 30.482 12.107 33.158 28.01 12.07 2.127 21.23 12.667 21.23 25.343z"></path><path fill="#fff" d="m377.717 138.754-10.099 14.905a.931.931 0 0 1-1.538 0l-10.099-14.905c-.422-.614.024-1.442.765-1.442h4.663c.51 0 .925-.415.925-.925v-18.563c0-.51.414-.925.924-.925h7.174c.51 0 .924.414.924.925v18.563c0 .51.415.925.933.925h4.662c.742 0 1.18.828.766 1.442zM350.856 132.928c.423.613-.024 1.45-.765 1.45h-4.663a.925.925 0 0 0-.924.925v18.563c0 .51-.415.925-.925.925h-7.173a.925.925 0 0 1-.925-.925v-18.563a.932.932 0 0 0-.933-.925h-4.662c-.741 0-1.18-.837-.765-1.45l10.098-14.905a.93.93 0 0 1 1.539 0l10.098 14.905z"></path><path fill="#3dcfa4" d="M355.4 486.705s25.722-22.53 25.54-27.181c-.183-4.652-9.943-1.46-10.581-4.561-.639-3.101 14.594-15.597 12.405-18.242s-7.936 4.56-8.848 1.094c-.912-3.466 10.23-21.22-2.007-22.347-15.621-1.44-8.856 19.36-11.401 19.884-3.249.669-8.162-4.816-13.265-.265-9.002 8.027 8.157 51.618 8.157 51.618z"></path><path fill="#30bb93" d="M356.26 483.164c1.184-12.703 5.673-37.544 9.24-46.224l.639-1.389-.425 1.46c-1.328 4.966-5.498 30.38-9.453 46.153z"></path><path fill="#30bb93" d="M362.286 453.43c1.131-2.845 4.454-6.74 7.113-8.297-1.13 2.86-4.469 6.744-7.113 8.298zM358.434 473.78c1.756-2.614 5.889-5.742 8.791-6.718-1.707 2.551-5.825 5.716-8.791 6.718zM359.048 467.462c-2.879-3.533-6.466-10.56-7.627-15.118.914 1.12 1.695 2.305 2.429 3.516 2.71 4.477 4.52 8.952 5.198 11.602z"></path><path fill="#3dcfa4" d="M354.513 487.117s1.558-23.555-.802-25.737c-2.36-2.182-5.566 4.141-7.391 2.939s-.49-14.739-2.85-14.961-1.648 6.1-3.785 4.853c-2.137-1.247-5.364-15.353-11.889-9.93-8.328 6.924 5.128 13.775 4.141 15.273-1.26 1.913-6.335 1.634-6.605 6.347-.476 8.312 29.18 21.216 29.18 21.216z"></path><path fill="#30bb93" d="M353.204 484.968c-5.084-6.129-15.375-20.656-18.055-27.075l-.366-.99.506.92c.483.835 1.632 2.544 1.699 2.645.853 1.33 11.199 16.123 16.216 24.5z"></path><path fill="#30bb93" d="M341.631 467.511c-.85-1.971-1.108-5.499-.579-7.522.837 1.93 1.114 5.461.579 7.522zM349.684 479.326c-.41-2.092.052-5.638 1.013-7.571.417 2.106-.063 5.653-1.013 7.571zM346.9 475.942c-3.177-.324-8.354-2.023-11.104-3.656 3.177.32 8.352 2.026 11.104 3.656z"></path><linearGradient id="bT" x1="353.763" x2="353.763" y1="485.08" y2="486.828" gradientUnits="userSpaceOnUse"><stop offset="0" stop-color="#909eff"></stop><stop offset="1" stop-color="#6977e3"></stop></linearGradient><path fill="url(#bT)" d="M339.649 483.056h28.228v5.542h-28.228z"></path><linearGradient id="bU" x1="353.763" x2="353.763" y1="491.986" y2="497.352" gradientUnits="userSpaceOnUse"><stop offset="0" stop-color="#909eff"></stop><stop offset="1" stop-color="#6977e3"></stop></linearGradient><path fill="url(#bU)" d="M361.556 505.483H345.97l-3.464-16.886h22.514z"></path></svg>